<?xml version="1.0" encoding="UTF-8"?>
<svg version="1.1" xmlns="http://www.w3.org/2000/svg" width="1024" height="1024">
<path d="M0 0 C337.92 0 675.84 0 1024 0 C1024 337.92 1024 675.84 1024 1024 C686.08 1024 348.16 1024 0 1024 C0 686.08 0 348.16 0 0 Z " fill="#FDFDFD" transform="translate(0,0)"/>
<path d="M0 0 C1.71230301 -0.01429802 1.71230301 -0.01429802 3.459198 -0.02888489 C5.30301559 -0.02751778 5.30301559 -0.02751778 7.18408203 -0.02612305 C8.45156281 -0.03040817 9.71904358 -0.0346933 11.02493286 -0.03910828 C13.70654147 -0.04485244 16.38776531 -0.04628639 19.06933594 -0.04101562 C22.49462517 -0.03522829 25.91937238 -0.05213774 29.34457207 -0.0753603 C32.62440437 -0.09369533 35.90420774 -0.08991109 39.18408203 -0.08862305 C40.4092453 -0.09783279 41.63440857 -0.10704254 42.896698 -0.11653137 C53.55113857 -0.05871469 53.55113857 -0.05871469 58.31689453 3.2746582 C65.43420305 10.59950402 65.5770501 22.44811052 67.00439453 32.1496582 C67.13595947 33.04104492 67.26752441 33.93243164 67.40307617 34.85083008 C68.08086147 39.711558 68.45728649 44.36762481 68.31689453 49.2746582 C68.85314453 49.34942383 69.38939453 49.42418945 69.94189453 49.5012207 C75.69651175 50.46663346 80.94975584 52.13859736 86.37939453 54.2121582 C87.07718018 54.47077637 87.77496582 54.72939453 88.49389648 54.99584961 C91.41100455 56.09041173 94.1506761 57.18346541 96.88720703 58.68481445 C99.31387102 59.93396437 100.58101975 60.48692435 103.31689453 60.2746582 C107.54672435 57.84304284 111.10816047 54.88827433 114.74755859 51.65698242 C116.97516496 49.69483132 119.29957009 47.86342734 121.62939453 46.0246582 C123.91520854 44.20706738 126.18381698 42.38947511 128.39501953 40.48168945 C132.50331225 37.0769823 135.72108957 35.5533959 141.04345703 34.98950195 C147.18982457 35.76043809 151.12174015 39.70619201 155.19189453 44.0246582 C158.36424132 47.34236859 161.56098298 50.53034944 165.04736328 53.52075195 C170.19327784 57.96361238 174.95982724 62.77157747 179.75439453 67.5871582 C180.66382813 68.49272461 181.57326172 69.39829102 182.51025391 70.33129883 C183.80479492 71.62777344 183.80479492 71.62777344 185.12548828 72.95043945 C185.90722412 73.73330322 186.68895996 74.51616699 187.49438477 75.32275391 C190.28127039 78.30750281 190.56827936 80.32722227 190.75439453 84.3371582 C190.81498047 85.23563477 190.87556641 86.13411133 190.93798828 87.05981445 C189.99432144 91.94432896 187.19253787 95.29023587 184.31689453 99.2746582 C183.20462994 100.90331387 182.09657272 102.53485064 180.99267578 104.16918945 C179.87214403 105.80889657 178.7510481 107.44821828 177.62939453 109.0871582 C177.0615625 109.91924805 176.49373047 110.75133789 175.90869141 111.60864258 C175.35890625 112.41237305 174.80912109 113.21610352 174.24267578 114.04418945 C173.7519458 114.76195557 173.26121582 115.47972168 172.75561523 116.21923828 C171.7630712 117.63723052 170.71581559 119.0179288 169.62744141 120.36376953 C168.03780992 122.27451414 168.03780992 122.27451414 168.42236328 125.0793457 C169.44669601 128.73831589 170.93464174 132.01765349 172.62939453 135.3996582 C175.77233392 141.871839 178.20506487 148.39061388 180.31689453 155.2746582 C183.83679848 155.90496552 187.35787017 156.52847006 190.87939453 157.1496582 C191.92611328 157.3352832 192.97283203 157.5209082 194.05126953 157.7121582 C199.96630503 158.74528864 205.84965799 159.61363502 211.81689453 160.2746582 C217.34316342 160.99840929 221.02132762 161.64729059 225.31689453 165.2746582 C229.81223558 172.24919829 229.90309393 178.30285586 229.84814453 186.4621582 C229.85197144 187.71923584 229.85579834 188.97631348 229.85974121 190.27148438 C229.86245526 192.92122309 229.85716865 195.56947014 229.83837891 198.21899414 C229.81558951 201.5948763 229.82872821 204.96948605 229.85266876 208.34532166 C229.87069582 211.59264443 229.85803036 214.83981874 229.84814453 218.0871582 C229.85624146 219.28945068 229.86433838 220.49174316 229.87268066 221.73046875 C229.79941501 228.32437791 229.52053457 233.94325127 225.31689453 239.2746582 C221.27057677 242.73104032 217.93404361 243.85370845 212.70361328 244.50512695 C211.45515625 244.66819336 210.20669922 244.83125977 208.92041016 244.99926758 C207.628125 245.15202148 206.33583984 245.30477539 205.00439453 245.4621582 C203.72371094 245.62651367 202.44302734 245.79086914 201.12353516 245.96020508 C194.52878805 246.79854915 187.92622569 247.56110991 181.31689453 248.2746582 C180.78902344 249.98008789 180.78902344 249.98008789 180.25048828 251.7199707 C177.37342186 260.78583468 174.17065396 269.13605846 169.53955078 277.4543457 C168.16887134 280.61610468 168.19301027 281.16055469 169.31689453 284.2746582 C170.60529612 286.48396055 170.60529612 286.48396055 172.23095703 288.72387695 C172.82779297 289.57272461 173.42462891 290.42157227 174.03955078 291.29614258 C174.66732422 292.17592773 175.29509766 293.05571289 175.94189453 293.9621582 C176.54646484 294.82260742 177.15103516 295.68305664 177.77392578 296.56958008 C181.35157154 301.63091902 185.05199134 306.55389208 188.94726562 311.37548828 C191.76181192 315.27822548 192.02907525 319.63206106 191.31689453 324.2746582 C188.17938049 331.5347311 182.05490269 336.91734633 176.50439453 342.3371582 C175.64007812 343.19631836 174.77576172 344.05547852 173.88525391 344.94067383 C169.39637523 349.37534717 164.82203916 353.6477575 160.03881836 357.76220703 C156.97804934 360.4506324 154.20924778 363.41592216 151.39501953 366.35668945 C147.43367657 370.01274094 144.01008657 370.87238766 138.71142578 370.69262695 C134.07703128 369.88368697 130.95756087 367.11988484 127.31689453 364.2746582 C125.95081953 363.23413351 124.58352054 362.19521477 123.21533203 361.1574707 C120.26739906 358.91677295 117.3315321 356.66150942 114.40283203 354.39575195 C113.37367676 353.61240479 113.37367676 353.61240479 112.32373047 352.81323242 C111.00514129 351.80231405 109.7003985 350.77302445 108.41162109 349.72436523 C105.00937545 347.01202272 105.00937545 347.01202272 100.84814453 346.25512695 C96.80749394 347.88261122 92.84615703 349.63671791 88.90283203 351.48364258 C82.56351284 354.36119629 75.99042621 356.32010216 69.31689453 358.2746582 C69.15608398 359.39437012 68.99527344 360.51408203 68.82958984 361.66772461 C68.22611562 365.84097054 67.60260199 370.01102079 66.97314453 374.18041992 C66.70403615 375.98169943 66.44029174 377.78378913 66.18212891 379.58666992 C65.80901801 382.1855308 65.41639363 384.78081873 65.02001953 387.3762207 C64.909422 388.1764566 64.79882446 388.9766925 64.68487549 389.80117798 C63.75353235 395.71103472 61.86267448 399.96754512 57.31689453 404.0871582 C50.60605805 408.07171736 43.02460832 406.2746582 35.31689453 406.2746582 C35.31689453 450.4946582 35.31689453 494.7146582 35.31689453 540.2746582 C39.27689453 540.2746582 43.23689453 540.2746582 47.31689453 540.2746582 C51.72709079 542.20411907 52.80568384 545.0443875 54.50439453 549.3371582 C55.90854314 553.36130825 56.43163726 556.85363986 56.69189453 561.0871582 C56.9559897 563.85832384 56.9559897 563.85832384 58.31689453 566.2746582 C62.76142301 569.09895907 67.30850966 570.71437659 72.31689453 572.2746582 C73.30689453 572.6046582 74.29689453 572.9346582 75.31689453 573.2746582 C78.69080231 571.7028928 81.9140575 569.9813274 85.16064453 568.16723633 C89.71725096 565.73904474 93.03254754 564.49648382 98.31689453 565.2746582 C103.28370371 567.79375633 106.95342919 570.5275636 110.92626953 574.4855957 C111.41975891 574.9762149 111.91324829 575.46683411 112.42169189 575.97232056 C113.45375904 577.0023626 114.48211363 578.03613711 115.50683594 579.07348633 C117.06662773 580.64938864 118.64184916 582.20857942 120.21923828 583.7668457 C121.22671221 584.77630167 122.23325534 585.78668764 123.23876953 586.7980957 C124.14208008 587.70479004 125.04539062 588.61148438 125.97607422 589.5456543 C128.77223188 592.80550519 130.94548858 596.08295494 131.67236328 600.37231445 C131.1959821 605.9448664 129.23147689 608.86771505 125.87939453 613.3371582 C123.26232131 617.30966899 121.90606519 619.88936129 122.80908203 624.55981445 C124.26409226 629.55704513 126.13903536 634.6279842 130.39892578 637.84887695 C132.72849529 638.64218981 134.87492891 638.98552947 137.31689453 639.2746582 C148.24671223 642.00310021 148.24671223 642.00310021 151.31689453 646.2746582 C152.2246066 648.9977944 152.45651199 650.66034988 152.49389648 653.46728516 C152.50673172 654.30858475 152.51956696 655.14988434 152.53279114 656.01667786 C152.54387154 657.37607735 152.54387154 657.37607735 152.55517578 658.76293945 C152.56324753 659.6988945 152.57131927 660.63484955 152.57963562 661.59916687 C152.59346555 663.58041538 152.60419259 665.5616876 152.61206055 667.54296875 C152.62927019 670.56532165 152.67316565 673.5865796 152.71728516 676.60864258 C152.72741279 678.53506684 152.73592867 680.46150039 152.74267578 682.38793945 C152.76893791 683.7382299 152.76893791 683.7382299 152.79573059 685.11579895 C152.7766816 690.65525165 152.09884563 693.92986354 148.31689453 698.2746582 C141.93470173 701.84868617 134.59681667 703.2746582 127.31689453 703.2746582 C127.15253906 704.14477539 127.15253906 704.14477539 126.98486328 705.0324707 C126.20522898 708.87359582 125.45011827 712.01807914 123.62939453 715.5246582 C122.04364518 718.84718065 122.2717673 719.80789472 123.31689453 723.2746582 C124.42282368 725.06366123 125.59535946 726.81250658 126.81689453 728.5246582 C129.84891527 733.16958894 132.412602 737.5913157 131.31689453 743.2746582 C128.57728821 747.80833591 125.34057075 751.54610379 121.59814453 755.2590332 C121.05838989 755.80070129 120.51863525 756.34236938 119.96252441 756.90045166 C118.82870846 758.03562003 117.69239731 759.1683012 116.55371094 760.29858398 C114.81484697 762.0266931 113.08696901 763.76527505 111.35986328 765.50512695 C110.25243141 766.61123788 109.14437964 767.7167286 108.03564453 768.8215332 C107.52199341 769.33923279 107.00834229 769.85693237 106.47912598 770.39031982 C102.75758196 774.06371788 100.24533807 776.05170347 95.03955078 776.65356445 C89.7684671 776.11705331 86.27299458 773.76226301 81.83447266 771.03051758 C78.79515941 769.26201914 76.7645258 768.26114481 73.21142578 768.3684082 C70.18469895 769.31604737 67.42056622 770.45367925 64.56689453 771.8371582 C59.51236195 774.2746582 59.51236195 774.2746582 57.31689453 774.2746582 C57.21376953 775.5327832 57.11064453 776.7909082 57.00439453 778.0871582 C55.31820066 792.70853796 55.31820066 792.70853796 50.81689453 797.3996582 C47.53107797 799.86402063 45.04470602 800.39923547 41.04833984 800.48339844 C40.19024719 800.50268906 39.33215454 800.52197968 38.44805908 800.54185486 C34.52417443 800.59980532 30.60046842 800.64887407 26.67626953 800.6796875 C24.61034422 800.70126163 22.54451017 800.73535747 20.47900391 800.78222656 C17.4922628 800.84934702 14.50740922 800.87670572 11.52001953 800.89575195 C10.6031134 800.92358261 9.68620728 800.95141327 8.74151611 800.98008728 C2.97552356 800.96171384 -0.13058148 799.91187168 -4.36178589 795.9506073 C-6.69828872 792.98700949 -7.38756247 789.80039228 -8.05810547 786.1496582 C-8.28433594 785.09584961 -8.28433594 785.09584961 -8.51513672 784.02075195 C-9.08868222 781.33574692 -9.63991644 778.68255457 -9.92919922 775.95043945 C-11.2012625 773.12289983 -13.58047455 772.67506903 -16.37060547 771.5871582 C-17.92328125 770.96260742 -17.92328125 770.96260742 -19.50732422 770.32543945 C-25.66429817 768.16078469 -25.66429817 768.16078469 -31.78857422 769.6730957 C-32.80564453 770.32536133 -33.82271484 770.97762695 -34.87060547 771.6496582 C-40.4267175 775.15804592 -43.98596079 776.84221284 -50.68310547 776.2746582 C-58.28449443 772.2313662 -64.39876215 765.76910714 -69.89013672 759.24731445 C-71.75602542 757.19443037 -73.73347408 755.47795807 -75.87060547 753.7121582 C-80.50943926 749.73987528 -83.125201 746.17576143 -84.30810547 740.0246582 C-83.2768884 733.83735581 -80.07184664 727.91915325 -75.85888672 723.25512695 C-75.47087891 722.60157227 -75.08287109 721.94801758 -74.68310547 721.2746582 C-75.30820145 718.78186333 -75.30820145 718.78186333 -76.68310547 716.2746582 C-77.40031579 714.38216527 -78.1085739 712.48625686 -78.80810547 710.5871582 C-79.33791016 709.15823242 -79.33791016 709.15823242 -79.87841797 707.70043945 C-80.68310547 705.2746582 -80.68310547 705.2746582 -80.68310547 703.2746582 C-81.96185547 703.1715332 -83.24060547 703.0684082 -84.55810547 702.9621582 C-91.25830225 702.19068444 -97.43788766 701.10748907 -102.74560547 696.7746582 C-105.22181164 693.57955346 -105.80608719 691.19695952 -105.84423828 687.265625 C-105.85384583 686.46436691 -105.86345337 685.66310883 -105.87335205 684.83757019 C-105.87760193 683.97505142 -105.88185181 683.11253265 -105.88623047 682.22387695 C-105.89193054 681.332314 -105.89763062 680.44075104 -105.90350342 679.52217102 C-105.91294896 677.63507268 -105.91948563 675.74795788 -105.92333984 673.86083984 C-105.93303353 670.98351 -105.96405602 668.10689819 -105.99560547 665.22973633 C-106.00213704 663.3944541 -106.00738691 661.55916678 -106.01123047 659.72387695 C-106.02357727 658.86743088 -106.03592407 658.0109848 -106.04864502 657.12858582 C-106.02702096 651.28707798 -105.14862801 646.93162132 -101.02294922 642.4855957 C-98.25631013 641.05377915 -95.60145021 640.68490201 -92.53881836 640.24926758 C-88.74660143 639.67112911 -85.11861174 639.04185626 -81.68310547 637.2746582 C-78.7471681 633.17923832 -77.77000419 629.13806943 -76.68310547 624.2746582 C-76.25384766 623.5940332 -75.82458984 622.9134082 -75.38232422 622.2121582 C-75.03621094 621.2530957 -75.03621094 621.2530957 -74.68310547 620.2746582 C-75.91669835 617.4988233 -75.91669835 617.4988233 -77.93310547 614.7746582 C-81.62283016 609.40241905 -83.84863979 606.10311486 -84.14404297 599.4699707 C-82.57756213 592.00927383 -75.09306507 586.34699684 -69.88427734 581.16015625 C-68.3104557 579.58950371 -66.75046112 578.00595837 -65.19091797 576.42114258 C-64.1813127 575.40926464 -63.17092184 574.39816981 -62.15966797 573.38793945 C-61.25297363 572.47826416 -60.3462793 571.56858887 -59.41210938 570.63134766 C-55.7334783 567.45458744 -52.34709029 565.57417547 -47.55810547 564.7121582 C-40.61680851 565.71976583 -34.47223626 569.41523768 -28.68310547 573.2746582 C-24.06905169 572.72655246 -19.67835938 570.17369977 -15.46044922 568.33325195 C-12.68310547 567.2746582 -12.68310547 567.2746582 -9.68310547 567.2746582 C-9.64572266 566.52442383 -9.60833984 565.77418945 -9.56982422 565.0012207 C-9.03589951 556.68874588 -8.47010101 548.9417576 -3.30810547 542.1496582 C0.31689453 540.2746582 0.31689453 540.2746582 13.31689453 540.2746582 C13.31689453 496.0546582 13.31689453 451.8346582 13.31689453 406.2746582 C7.37689453 406.2746582 1.43689453 406.2746582 -4.68310547 406.2746582 C-10.53906946 403.68024378 -12.76763589 401.89896333 -15.68310547 396.2746582 C-16.32992244 393.49924471 -16.8566231 390.82380461 -17.28857422 388.0168457 C-17.48197136 386.83954391 -17.48197136 386.83954391 -17.67927551 385.63845825 C-18.086301 383.14367981 -18.47833595 380.64679442 -18.87060547 378.1496582 C-19.14507821 376.46331063 -19.42045947 374.77711067 -19.69677734 373.09106445 C-19.9573487 371.4831219 -20.21714138 369.87505292 -20.47607422 368.2668457 C-20.65882149 367.13241531 -20.65882149 367.13241531 -20.84526062 365.97506714 C-21.30547258 363.03989134 -21.68310547 360.25094491 -21.68310547 357.2746582 C-22.21935547 357.19989258 -22.75560547 357.12512695 -23.30810547 357.0480957 C-29.10542526 356.07551903 -34.45011412 354.40213165 -39.93310547 352.3371582 C-40.94244141 351.95793213 -40.94244141 351.95793213 -41.97216797 351.57104492 C-45.09215307 350.36944987 -47.96811553 349.12010565 -50.91748047 347.52075195 C-54.04125697 346.11328768 -54.58498991 346.14889262 -57.68310547 347.2746582 C-59.79839285 348.56047648 -59.79839285 348.56047648 -61.91357422 350.1887207 C-62.71730469 350.78555664 -63.52103516 351.38239258 -64.34912109 351.99731445 C-65.18121094 352.62508789 -66.01330078 353.25286133 -66.87060547 353.8996582 C-67.68335938 354.50422852 -68.49611328 355.10879883 -69.33349609 355.73168945 C-74.17598467 359.3452569 -78.94938586 363.0343095 -83.66870117 366.80737305 C-87.63999353 369.70004873 -90.51906121 370.51431615 -95.48779297 370.7355957 C-101.8137429 369.40737134 -106.53624772 363.67414646 -110.87451172 359.2434082 C-111.87610573 358.23401184 -111.87610573 358.23401184 -112.89793396 357.20422363 C-115.01867273 355.06576981 -117.13256963 352.92072153 -119.24560547 350.7746582 C-121.36307192 348.62947938 -123.48202042 346.48581889 -125.60398865 344.34509277 C-126.92017676 343.01674838 -128.2336832 341.68573977 -129.54408264 340.35168457 C-132.77755174 337.08307231 -136.05703856 334.11415514 -139.68310547 331.2746582 C-143.05443166 326.5895774 -144.4330275 322.05977104 -143.68310547 316.2746582 C-141.40893734 310.88230079 -138.01906547 306.5863827 -134.43310547 302.0246582 C-133.26796522 300.51507276 -132.10389627 299.00465983 -130.94091797 297.4934082 C-129.04218658 295.03326517 -127.14107293 292.57503793 -125.23779297 290.1184082 C-124.60099609 289.2624707 -123.96419922 288.4065332 -123.30810547 287.5246582 C-122.76412109 286.80793945 -122.22013672 286.0912207 -121.65966797 285.3527832 C-120.30013514 282.45969735 -120.69077051 281.32009997 -121.68310547 278.2746582 C-122.89413825 275.31964889 -124.21539099 272.42184141 -125.55810547 269.5246582 C-132.68310547 254.12630655 -132.68310547 254.12630655 -132.68310547 248.2746582 C-133.32852295 248.21842285 -133.97394043 248.1621875 -134.63891602 248.10424805 C-141.93480704 247.45627268 -149.21726893 246.72147638 -156.49560547 245.8996582 C-158.13432617 245.72950195 -158.13432617 245.72950195 -159.80615234 245.5559082 C-167.95912909 244.6230052 -173.97563887 243.145618 -179.39039612 236.66107178 C-182.1756852 231.51927275 -181.49279756 225.50465483 -181.40966797 219.80200195 C-181.40862903 218.3914846 -181.40967115 216.98096433 -181.41268921 215.57044983 C-181.41251044 212.62399679 -181.39179446 209.67864598 -181.35546875 206.73242188 C-181.31005059 202.96729688 -181.30901945 199.20377645 -181.32250404 195.43845272 C-181.32920548 192.52915839 -181.31588395 189.62022597 -181.29624557 186.71100044 C-181.2885818 185.32322651 -181.28622839 183.9354122 -181.28941727 182.54762077 C-181.2940818 170.41065798 -181.2940818 170.41065798 -179.02050781 166.56591797 C-174.49082002 162.12565059 -169.99416386 160.90556402 -163.81591797 160.10668945 C-161.86878906 159.85048828 -161.86878906 159.85048828 -159.88232422 159.58911133 C-159.21249512 159.50669189 -158.54266602 159.42427246 -157.85253906 159.33935547 C-155.81901943 159.08850453 -153.78829376 158.82069728 -151.75732422 158.55004883 C-145.35722075 157.72862821 -139.13659526 157.03533441 -132.68310547 157.2746582 C-132.40466797 155.5421582 -132.40466797 155.5421582 -132.12060547 153.7746582 C-131.06177191 148.9756284 -129.27419964 144.63233219 -127.30810547 140.1496582 C-127.01605225 139.4812793 -126.72399902 138.81290039 -126.4230957 138.12426758 C-124.92010388 134.7705183 -123.32254941 131.68596222 -121.33154297 128.5949707 C-119.40977966 125.52316182 -119.40977966 125.52316182 -120.05029297 122.8762207 C-122.47699851 119.00974729 -125.09683258 115.32102223 -127.80810547 111.6496582 C-128.38906982 110.84641113 -128.97003418 110.04316406 -129.56860352 109.21557617 C-132.07267253 105.76305409 -134.58099003 102.34223201 -137.31982422 99.0715332 C-141.69176392 93.70275986 -144.16966962 89.42749837 -143.45507812 82.32421875 C-142.57814621 78.86003263 -141.54414887 77.46872777 -139.09716797 74.8996582 C-138.28352783 74.03912842 -137.4698877 73.17859863 -136.6315918 72.29199219 C-135.64997488 71.28503141 -134.66704112 70.27935339 -133.68310547 69.2746582 C-133.11731781 68.69088409 -132.55153015 68.10710999 -131.96859741 67.50564575 C-128.03912706 63.45335288 -124.07481693 59.43738243 -120.08911133 55.44042969 C-117.98235703 53.32384796 -115.88651094 51.1968215 -113.79052734 49.06958008 C-112.4389716 47.71150325 -111.08678059 46.35405827 -109.73388672 44.99731445 C-109.11500076 44.3660817 -108.49611481 43.73484894 -107.85847473 43.08448792 C-103.91556947 39.16159996 -100.15000879 35.6784119 -94.38549805 35.00708008 C-88.30571914 35.68471116 -84.88605999 37.74946706 -80.37060547 41.7746582 C-79.07502859 42.86994555 -77.7781359 43.96367824 -76.47998047 45.0559082 C-75.52575195 45.87188477 -75.52575195 45.87188477 -74.55224609 46.7043457 C-71.81647542 49.00273611 -68.984419 51.13748393 -66.12060547 53.2746582 C-65.21181641 53.9552832 -64.30302734 54.6359082 -63.36669922 55.3371582 C-60.51701243 57.39457399 -57.61917834 59.34314477 -54.68310547 61.2746582 C-53.91353516 60.83766602 -53.91353516 60.83766602 -53.12841797 60.3918457 C-43.6458691 55.31532964 -33.13552539 51.79815852 -22.68310547 49.2746582 C-22.57764404 48.6669458 -22.47218262 48.0592334 -22.36352539 47.43310547 C-22.2150415 46.57773193 -22.06655762 45.7223584 -21.91357422 44.84106445 C-21.74873535 43.88973633 -21.58389648 42.9384082 -21.4140625 41.95825195 C-21.04962369 39.86526642 -20.68207408 37.77282032 -20.31152344 35.6809082 C-19.46117538 30.86399306 -18.63171751 26.05369512 -17.96044922 21.20825195 C-16.00507411 7.5644687 -16.00507411 7.5644687 -9.68310547 2.2746582 C-6.40036557 0.2312455 -3.83964827 0.0176311 0 0 Z " fill="#015FC9" transform="translate(657.68310546875,95.725341796875)"/>
<path d="M0 0 C12.21 0 24.42 0 37 0 C39.8125 18.125 39.8125 18.125 40.67895508 23.81298828 C40.916689 25.31555513 41.15516545 26.81800476 41.39453125 28.3203125 C41.50873413 29.08851318 41.62293701 29.85671387 41.74060059 30.64819336 C42.48392053 35.24124498 43.58236451 38.94221684 46 43 C47.74696185 44.3504594 47.74696185 44.3504594 49.9375 45 C50.82179688 45.31582031 51.70609375 45.63164062 52.6171875 45.95703125 C55.24075929 46.76591539 57.86322208 47.52747532 60.5078125 48.26171875 C62.1933244 48.73478963 63.87820064 49.21013002 65.5625 49.6875 C66.42383545 49.93137451 67.2851709 50.17524902 68.17260742 50.42651367 C75.04412962 52.47743804 81.11622522 55.34623945 87.26782227 59.01635742 C91.95255995 61.74729887 95.51498041 63.01625994 101 63 C106.62297065 60.52314085 111.11747072 56.66802698 115.8125 52.75 C117.21460415 51.59476122 118.61694788 50.43981315 120.01953125 49.28515625 C120.69580566 48.72586426 121.37208008 48.16657227 122.06884766 47.59033203 C124.69224523 45.42992599 127.34291963 43.30634155 130 41.1875 C130.78375 40.56230469 131.5675 39.93710938 132.375 39.29296875 C132.91125 38.86628906 133.4475 38.43960938 134 38 C135.65291865 39.41186801 137.30496373 40.82476881 138.953125 42.2421875 C140.25085576 43.35665094 141.5524897 44.46659845 142.859375 45.5703125 C148.89186026 50.73033089 154.43721345 56.34518205 160 62 C158.74247784 64.62249423 157.38461169 67.01853051 155.71484375 69.3984375 C155.27060059 70.03595947 154.82635742 70.67348145 154.36865234 71.33032227 C153.89637207 72.00506592 153.4240918 72.67980957 152.9375 73.375 C150.95390814 76.24695906 148.97670598 79.12329828 147 82 C146.5447998 82.6604834 146.08959961 83.3209668 145.62060547 84.00146484 C144.35784909 85.84601966 143.11395419 87.70190048 141.875 89.5625 C141.15054687 90.63628906 140.42609375 91.71007812 139.6796875 92.81640625 C137.6929144 96.58203433 136.90640564 98.71694363 137 103 C138.46854871 106.69723739 140.44673466 110.06233518 142.4375 113.5 C157 139.85435366 157 139.85435366 157 151 C170.48708561 156.759084 186.67956716 157.76724434 201 160 C201 172.87 201 185.74 201 199 C184.5625 201.25 184.5625 201.25 179.43188477 201.93066406 C168.14462773 203.26414529 168.14462773 203.26414529 158 208 C156.28929546 210.18401434 156.28929546 210.18401434 155.75 212.8125 C155.31107422 214.28009766 155.31107422 214.28009766 154.86328125 215.77734375 C154.57839844 216.84082031 154.29351563 217.90429688 154 219 C151.02249721 229.31795864 147.02893823 238.27246672 141.65795898 247.59130859 C138.60568188 253.06734533 137.14167737 256.71228772 138 263 C139.09707625 265.7455175 139.09707625 265.7455175 140.875 268.125 C141.50921875 269.04925781 142.1434375 269.97351563 142.796875 270.92578125 C143.52390625 271.94027344 144.2509375 272.95476562 145 274 C145.83955161 275.20111762 146.67805158 276.40297084 147.515625 277.60546875 C152.40916345 284.60890694 152.40916345 284.60890694 157.8671875 291.16796875 C160 294 160 294 159.9675293 295.82446289 C158.53457668 299.04652718 156.14550725 301.22172676 153.65234375 303.640625 C153.12105362 304.16767029 152.58976349 304.69471558 152.04237366 305.23773193 C150.34767175 306.91567187 148.64282783 308.58286728 146.9375 310.25 C145.78512255 311.38732745 144.63342148 312.52534066 143.48242188 313.6640625 C140.66272816 316.45071992 137.83389412 319.22778792 135 322 C132.04869993 320.63014974 129.60698339 319.04146735 127.05859375 317.0234375 C126.31520752 316.43844482 125.57182129 315.85345215 124.8059082 315.25073242 C124.0243335 314.63174072 123.24275879 314.01274902 122.4375 313.375 C120.81580181 312.10718004 119.1934079 310.84024947 117.5703125 309.57421875 C115.44316557 307.91224871 113.31646078 306.24999544 111.19824219 304.57666016 C109.7465342 303.43385482 108.28017794 302.30972171 106.8125 301.1875 C105.64654297 300.28064453 105.64654297 300.28064453 104.45703125 299.35546875 C101.15918714 297.53614935 98.77386635 297.08029503 95 297 C92.26004207 298.06988833 89.9694564 299.13574524 87.4375 300.5625 C86.02236949 301.31150332 84.6056719 302.05755263 83.1875 302.80078125 C82.13175781 303.36079834 82.13175781 303.36079834 81.0546875 303.93212891 C72.13094946 308.57001272 63.0393588 311.76134517 53.27734375 314.04296875 C48.77916864 315.3545618 48.77916864 315.3545618 45 318 C41.2810094 325.00937233 40.87769231 333.58374765 39.875 341.3125 C39.54079585 343.80882642 39.20493171 346.30493132 38.8671875 348.80078125 C38.72394043 349.89559814 38.58069336 350.99041504 38.43310547 352.1184082 C38 355 38 355 37 359 C24.79 359 12.58 359 0 359 C-1.87669838 349.61650808 -3.62363754 340.44598397 -4.81640625 330.9921875 C-5.52592333 325.85430519 -6.32413738 321.49000677 -9 317 C-13.44360172 314.5058149 -18.06691615 313.37208922 -23 312.1875 C-33.1795055 309.60048568 -42.80895258 305.97876617 -51.875 300.625 C-55.88008838 298.40388904 -59.08056035 296.9244468 -63.71484375 297.30859375 C-68.92024713 298.88356195 -72.88460034 302.58112662 -77 306 C-79.07522982 307.69123262 -81.1536736 309.37846751 -83.23217773 311.06567383 C-84.63644314 312.21042932 -86.03589892 313.36111599 -87.42993164 314.51831055 C-88.07953857 315.05496338 -88.72914551 315.59161621 -89.3984375 316.14453125 C-89.97255371 316.62253174 -90.54666992 317.10053223 -91.13818359 317.59301758 C-93.30693041 319.23194859 -95.66901346 320.60140808 -98 322 C-106.58 313.42 -115.16 304.84 -124 296 C-121.03 292.04 -121.03 292.04 -118 288 C-115.77525447 284.99098518 -113.5735735 281.96567541 -111.375 278.9375 C-110.81554687 278.17373047 -110.25609375 277.40996094 -109.6796875 276.62304688 C-108.0914682 274.43362664 -106.53589545 272.22637704 -105 270 C-104.36239746 269.09145264 -104.36239746 269.09145264 -103.71191406 268.16455078 C-100.95790541 263.8906297 -99.99758155 259.968303 -101 255 C-102.20083319 252.03528433 -103.79637054 249.36510543 -105.4375 246.625 C-110.51966591 237.66606536 -113.86621065 228.44175733 -116.95483398 218.63330078 C-117.46832397 217.03784424 -117.46832397 217.03784424 -117.9921875 215.41015625 C-118.28464355 214.46277588 -118.57709961 213.51539551 -118.87841797 212.53930664 C-120.15913997 209.63970073 -121.58951243 208.03739457 -124 206 C-126.59110872 205.00258297 -126.59110872 205.00258297 -129.625 204.5 C-130.83671875 204.26667969 -132.0484375 204.03335938 -133.296875 203.79296875 C-143.50379193 202.02957863 -153.75352571 200.51281692 -164 199 C-164.02464775 193.46411467 -164.04283496 187.928261 -164.05493164 182.39233398 C-164.05997244 180.5075627 -164.06680498 178.62279535 -164.07543945 176.73803711 C-164.08751617 174.03498364 -164.09323068 171.33198169 -164.09765625 168.62890625 C-164.10281754 167.78099014 -164.10797882 166.93307404 -164.11329651 166.0594635 C-164.11349195 164.03928932 -164.06206211 162.01922066 -164 160 C-162.12803403 158.12803403 -158.98994566 158.42601529 -156.47265625 158.1328125 C-155.10869398 157.96769533 -153.74476272 157.80232195 -152.38085938 157.63671875 C-150.23565121 157.38113398 -148.09021029 157.12819992 -145.9440918 156.88037109 C-131.96287257 156.15641439 -131.96287257 156.15641439 -120.31420898 150.11352539 C-118.45551038 147.12434579 -117.58481906 143.91788737 -116.625 140.5625 C-116.18774126 139.11502281 -115.74759646 137.66841456 -115.3046875 136.22265625 C-115.08522461 135.50609863 -114.86576172 134.78954102 -114.63964844 134.05126953 C-111.7813095 124.88494748 -108.01784706 116.71789093 -102.85839844 108.64257812 C-100.92130806 105.45150228 -100.02275646 103.45195395 -99.83203125 99.6640625 C-101.51450778 94.38592543 -104.40866059 90.26850483 -107.5625 85.75 C-108.19494629 84.82356689 -108.82739258 83.89713379 -109.47900391 82.94262695 C-113.86632854 76.5435562 -118.32814847 70.19528137 -123 64 C-121.33445009 59.66746195 -118.12570528 56.86442976 -114.875 53.6875 C-114.29186035 53.11153076 -113.7087207 52.53556152 -113.10791016 51.94213867 C-102.92668093 41.95112062 -102.92668093 41.95112062 -97 38 C-94.22724239 40.14335583 -91.45683232 42.28972041 -88.6875 44.4375 C-87.86749512 45.07333008 -87.04749023 45.70916016 -86.20263672 46.36425781 C-80.77029445 50.58905639 -75.42229385 54.88784075 -70.1640625 59.328125 C-66.06217013 62.497096 -63.26514329 63.61905321 -58 63 C-55.37008913 61.72969256 -52.94030517 60.41868535 -50.4375 58.9375 C-40.00908163 53.08144387 -28.80423749 49.30710152 -17.25341797 46.28027344 C-16.36412598 46.04083008 -15.47483398 45.80138672 -14.55859375 45.5546875 C-13.35481079 45.24893799 -13.35481079 45.24893799 -12.12670898 44.93701172 C-9.40386007 43.73734531 -8.47419287 42.57232473 -7 40 C-6.2801816 37.4580751 -6.2801816 37.4580751 -5.9375 34.66796875 C-5.78023437 33.62060547 -5.62296875 32.57324219 -5.4609375 31.49414062 C-5.30882812 30.40294922 -5.15671875 29.31175781 -5 28.1875 C-3.62459242 18.7053469 -1.88377335 9.41886674 0 0 Z " fill="#FCFCFD" transform="translate(663,119)"/>
<path d="M0 0 C9.27013848 4.75704475 15.81762932 12.3836181 19.33984375 22.203125 C21.56792877 31.64282249 20.76214255 41.49708595 16 50 C11.50857992 56.15915759 6.12313869 61.9380173 -1 65 C-1.99 65 -2.98 65 -4 65 C-4 84.8 -4 104.6 -4 125 C5.72291504 124.97905273 15.44583008 124.95810547 25.46337891 124.93652344 C56.56100254 124.87234491 87.65862642 124.82783934 118.75629906 124.79573868 C123.58541699 124.79073576 128.41453471 124.78555848 133.24365234 124.78027344 C134.20505644 124.7792242 135.16646053 124.77817495 136.15699808 124.77709392 C151.73083824 124.75968123 167.30461944 124.72813879 182.8784246 124.69138882 C198.85456521 124.65400342 214.83067491 124.63176923 230.80685747 124.62364602 C240.66772201 124.61815326 250.5284199 124.60079512 260.38923316 124.56833413 C267.14806219 124.54721588 273.90680487 124.54079385 280.66566451 124.54599449 C284.56718556 124.54856047 288.46841507 124.54458377 292.36988449 124.5231781 C295.94166982 124.50372416 299.51296732 124.50272204 303.08477502 124.51640442 C304.98913603 124.5188969 306.89349124 124.50163436 308.79776919 124.48367476 C315.13826031 124.52822038 319.22627794 124.63219522 324 129 C326.59036348 132.41457004 326.43108741 135.83282171 326 140 C323.88131487 144.01036828 322.22602361 146.35550522 318 148 C315.62078857 148.24050903 315.62078857 148.24050903 312.95605469 148.22705078 C311.45495148 148.22682419 311.45495148 148.22682419 309.92352295 148.22659302 C308.85047913 148.21627045 307.7774353 148.20594788 306.671875 148.1953125 C305.56773254 148.1924826 304.46359009 148.18965271 303.32598877 148.18673706 C299.8005488 148.17554489 296.27536315 148.15044175 292.75 148.125 C290.35937867 148.11496897 287.96875336 148.10584333 285.578125 148.09765625 C279.71857326 148.07731058 273.85957122 148.03815929 268 148 C268 162.19 268 176.38 268 191 C269.65 191.33 271.3 191.66 273 192 C281.74594423 196.95603506 288.29471313 204.5248031 291.33984375 214.08203125 C293.45082859 223.41283407 292.30214617 232.45337718 288 241 C281.09948279 250.72037494 272.68040244 256.64934179 261 259 C251.11360398 260.23368702 241.82907021 256.96966604 234 251 C226.67372206 245.1695038 222.45799025 237.24866543 221 228 C220.02573722 218.64068867 222.35813008 210.36456223 227.8125 202.6875 C232.94955126 196.38880398 237.42353649 193.24705579 245 190 C245.33 176.14 245.66 162.28 246 148 C206.4 148 166.8 148 126 148 C126 199.48 126 250.96 126 304 C129.96 304 133.92 304 138 304 C143.33855181 307.03886795 145.12171009 309.40682899 146.8125 315.25 C147.49003153 318.12069717 147.98785294 320.85279405 148.23046875 323.79296875 C148.50909582 326.52674452 148.76251902 328.53878783 150 331 C153.49688842 333.07452062 157.09493959 333.97058579 161 335 C161.67289062 335.3815625 162.34578125 335.763125 163.0390625 336.15625 C165.76806879 337.33048378 167.19211155 336.89051394 170 336 C171.75608249 335.02619696 173.48456669 334.00151889 175.1875 332.9375 C180.42404704 330.00870348 185.0486019 328.49997495 191 330 C195.42491678 332.69105287 199.1224488 335.81485963 202.765625 339.46484375 C203.28509705 339.98003067 203.80456909 340.49521759 204.33978271 341.02601624 C205.42794587 342.10847454 206.51354983 343.19351115 207.59667969 344.28100586 C209.2507341 345.93823551 210.91772317 347.58164873 212.5859375 349.22460938 C213.64664322 350.28304316 214.70656669 351.34226158 215.765625 352.40234375 C216.50936371 353.13226784 216.50936371 353.13226784 217.26812744 353.87693787 C221.29541732 357.95864464 223 360.93824286 223 366.6875 C222.15857448 372.15157187 219.02261113 376.48612715 216 381 C213.71783645 383.73233504 213.71783645 383.73233504 214.24609375 386.3671875 C215.27039896 389.9442948 216.70077925 393.2779813 218.16015625 396.6953125 C219 399 219 399 219 402 C219.845625 402.09796875 220.69125 402.1959375 221.5625 402.296875 C236.94008554 404.32392037 236.94008554 404.32392037 242.07202148 410.48925781 C244.76921392 414.64090884 244.57617964 418.74094557 244.53125 423.5625 C244.5350769 424.47201416 244.53890381 425.38152832 244.54284668 426.31860352 C244.54555955 428.23487459 244.53824226 430.15118309 244.52148438 432.06738281 C244.50006536 434.99107871 244.52130685 437.91231752 244.546875 440.8359375 C244.54423161 442.70313039 244.53910641 444.57032176 244.53125 446.4375 C244.53934692 447.30640869 244.54744385 448.17531738 244.55578613 449.07055664 C244.47211962 454.51876997 243.64769292 457.69122566 240 462 C234.2802381 465.86083928 225.8957027 468 219 468 C218.70996094 468.99580078 218.70996094 468.99580078 218.4140625 470.01171875 C216.1814882 477.58257713 216.1814882 477.58257713 214.75 480.875 C213.8042115 483.55473409 214.06420467 484.3158651 215 487 C216.67550794 489.94010907 218.40363102 492.82756726 220.20507812 495.69140625 C222.57697351 499.64599494 223.77817907 502.40445428 223 507 C220.20397393 511.71749509 216.86188419 515.41990575 212.9921875 519.23828125 C212.14214645 520.08763496 212.14214645 520.08763496 211.27493286 520.95414734 C210.08556257 522.14051515 208.89378156 523.32447063 207.69970703 524.50610352 C205.86817602 526.3192555 204.04489619 528.14040582 202.22265625 529.96289062 C201.06297286 531.11766256 199.90283271 532.27197603 198.7421875 533.42578125 C198.19634003 533.9705159 197.65049255 534.51525055 197.08810425 535.07649231 C193.39153711 538.72658736 191.54830564 540.16034395 186.375 540.3125 C179.54550218 540.24361458 175.18215878 537.62592223 169.8125 533.625 C168.884375 533.08875 167.95625 532.5525 167 532 C164.55600385 532.74138769 164.55600385 532.74138769 162 534 C160.29274336 534.7109245 158.584414 535.41927862 156.875 536.125 C156.02679688 536.47820313 155.17859375 536.83140625 154.3046875 537.1953125 C152 538 152 538 149 538 C148.82984375 539.07378906 148.6596875 540.14757812 148.484375 541.25390625 C148.24029465 542.69022523 147.99546271 544.12641662 147.75 545.5625 C147.58564453 546.61920898 147.58564453 546.61920898 147.41796875 547.69726562 C146.51057336 552.8789709 145.00444295 556.65232982 142 561 C139.0905653 562.85213821 136.82036061 563.25767937 133.40258789 563.29052734 C132.04581688 563.3096669 132.04581688 563.3096669 130.66163635 563.32919312 C129.2068412 563.33253159 129.2068412 563.33253159 127.72265625 563.3359375 C126.71915634 563.3425943 125.71565643 563.3492511 124.68174744 563.35610962 C122.56104361 563.36622729 120.44030801 563.37092691 118.31958008 563.37060547 C115.07775394 563.37497942 111.83728852 563.41131123 108.59570312 563.44921875 C106.53385882 563.45508693 104.47200805 563.45905631 102.41015625 563.4609375 C100.95839745 563.48249405 100.95839745 563.48249405 99.47731018 563.50448608 C95.20144837 563.47549912 92.684657 563.40731856 88.95092773 561.18603516 C85.44881778 557.26188392 84.22751371 552.8838135 83.609375 547.765625 C83.10247643 544.15192876 82.58129959 541.29838946 81 538 C76.9008774 535.33801998 72.73102719 534.11040339 68 533 C67.34128906 532.71769531 66.68257812 532.43539062 66.00390625 532.14453125 C62.59489398 531.89865707 60.12461326 534.14127959 57.375 535.9375 C52.38816859 538.9574836 48.25040852 541.27460976 42.23046875 540.71484375 C37.84968354 539.31084429 35.13782125 536.2297496 32 533 C30.48686421 531.67863315 28.9658475 530.36624238 27.4375 529.0625 C23.90440045 525.91725357 20.73906606 522.62859289 17.703125 519.00390625 C16.52704433 517.62012326 15.30433486 516.27511693 14.046875 514.96484375 C11.22561119 511.98875449 9.23300425 509.5769629 7.6875 505.75 C8.22687111 499.27754666 11.52872515 492.87039667 15.765625 487.94921875 C17.24794004 486.04707811 17.24794004 486.04707811 16.78125 483.625 C16.5234375 482.75875 16.265625 481.8925 16 481 C15.8040625 480.030625 15.608125 479.06125 15.40625 478.0625 C14.33797394 474.45246365 13.32353866 471.98859445 11 469 C7.62884079 467.21269259 4.04151726 466.36268382 0.3203125 465.60742188 C-5.11372661 464.49833546 -8.06495323 462.98370268 -12 459 C-12.90771207 456.2768638 -13.13961745 454.61430833 -13.17700195 451.80737305 C-13.19625481 450.54542366 -13.19625481 450.54542366 -13.21589661 449.25798035 C-13.22328354 448.35171402 -13.23067047 447.44544769 -13.23828125 446.51171875 C-13.246353 445.5757637 -13.25442474 444.63980865 -13.26274109 443.67549133 C-13.27657102 441.69424283 -13.28729805 439.7129706 -13.29516602 437.73168945 C-13.31237566 434.70933655 -13.35627112 431.68807861 -13.40039062 428.66601562 C-13.41051826 426.73959136 -13.41903414 424.81315782 -13.42578125 422.88671875 C-13.44328934 421.98652512 -13.46079742 421.08633148 -13.47883606 420.15885925 C-13.45977863 414.61695214 -12.77449466 411.35295146 -9 407 C-5.47566395 404.97538142 -2.92087495 404.09300607 1.1328125 403.68359375 C7.36390397 403.06848339 7.36390397 403.06848339 12.20605469 399.47949219 C14.90703013 394.70632635 17.71228685 388.80002415 16.3203125 383.328125 C14.92864466 380.87417815 13.47532185 378.49029848 11.9375 376.125 C9.45987073 372.03205361 7.90570397 368.90339354 8 364 C9.97337811 359.25340281 12.74979144 355.69615811 16.25 352 C16.98416138 351.2107312 16.98416138 351.2107312 17.7331543 350.40551758 C20.80260452 347.14590204 23.97413964 344.16779492 27.45703125 341.36328125 C29.18745934 339.83437136 30.55612502 338.1751066 32 336.375 C35.03731664 332.75914686 37.59985255 330.82075067 42 329 C48.5357802 328.78214066 52.77895551 331.26399632 58.2890625 334.625 C61.32712942 336.16592155 63.59788294 336.8127275 67 337 C69.64144383 336.10445379 69.64144383 336.10445379 72.0625 334.625 C75.41165523 332.73084902 78.18366038 331.58503602 82 331 C82.03738281 330.32195312 82.07476562 329.64390625 82.11328125 328.9453125 C82.67551732 320.98581365 83.30081659 313.22585335 88.5625 306.9375 C94.24216005 302.42289842 94.34120822 304 104 304 C104 252.52 104 201.04 104 148 C69.81927357 148.0904842 69.81927357 148.0904842 35.63867188 148.20898438 C21.70435785 148.26352076 7.77008103 148.31493129 -6.16430664 148.34643555 C-16.31166157 148.3693918 -26.4589193 148.40276325 -36.60619718 148.44870156 C-41.98032506 148.47266576 -47.35435649 148.49137359 -52.72853661 148.49761391 C-57.7854648 148.50365028 -62.8421461 148.52359772 -67.898983 148.55427551 C-69.75614395 148.56307898 -71.61333714 148.56677356 -73.47051811 148.56500816 C-76.00453246 148.56335973 -78.53779034 148.58001752 -81.07170105 148.60127258 C-82.17628427 148.59400122 -82.17628427 148.59400122 -83.3031823 148.58658296 C-87.70460431 148.6475902 -90.48242766 149.3232723 -94 152 C-96.38008452 155.28500113 -96.24269141 158.35638253 -96.22705078 162.32910156 C-96.22682419 164.25064056 -96.22682419 164.25064056 -96.22659302 166.21099854 C-96.21638051 167.60420894 -96.20594853 168.99741776 -96.1953125 170.390625 C-96.19158064 171.81980186 -96.18873448 173.24898128 -96.18673706 174.67816162 C-96.17911419 178.43305571 -96.15947739 182.18779419 -96.1373291 185.94262695 C-96.11684159 189.77683406 -96.10772914 193.61106639 -96.09765625 197.4453125 C-96.07623012 204.96361248 -96.04211056 212.4817844 -96 220 C-95.17032211 220.40960464 -95.17032211 220.40960464 -94.32388306 220.82748413 C-93.23857803 221.36606552 -93.23857803 221.36606552 -92.13134766 221.91552734 C-91.41322906 222.27109711 -90.69511047 222.62666687 -89.95523071 222.99301147 C-81.62059266 227.28554065 -77.18478873 234.8359539 -73.625 243.25 C-71.65632645 255.06204132 -72.90310024 264.56983362 -79.12890625 274.8671875 C-85.10359969 282.9028379 -95.81102581 287.89918833 -105.5 289.3828125 C-115.56228022 289.86657597 -125.13075316 285.93069611 -132.734375 279.54296875 C-139.27661217 273.57387629 -143.55601891 265.77903253 -144.23828125 256.8984375 C-144.49933006 244.50548864 -141.97101509 237.20572998 -133.37890625 228.203125 C-129.00193371 224.14957407 -124.80454179 221.37731069 -119 220 C-119.00888245 219.17029694 -119.01776489 218.34059387 -119.0269165 217.48574829 C-119.10737845 209.63049992 -119.16812399 201.77539184 -119.20724869 193.9198246 C-119.22804004 189.88207915 -119.25620073 185.8446769 -119.30175781 181.80712891 C-119.34552046 177.90376838 -119.36920052 174.000736 -119.37950897 170.0971489 C-119.38684625 168.61492123 -119.40117301 167.1327096 -119.42292023 165.65062332 C-119.60727037 152.55500141 -117.56921511 143.80854922 -108.3671875 134.19921875 C-101.3030521 127.63633389 -93.98394911 124.73495536 -84.23852539 124.77294922 C-82.93770523 124.77310028 -81.63688507 124.77325134 -80.29664612 124.77340698 C-78.89698123 124.78361719 -77.49731795 124.79404913 -76.09765625 124.8046875 C-74.65034685 124.80842267 -73.20303489 124.81126726 -71.75572205 124.81326294 C-67.96634813 124.82085976 -64.17713015 124.84047375 -60.38781738 124.8626709 C-55.83058647 124.88683386 -51.27330309 124.89592915 -46.71602631 124.90757751 C-39.81057611 124.92690091 -32.90546735 124.96525065 -26 125 C-26 105.2 -26 85.4 -26 65 C-27.65 64.67 -29.3 64.34 -31 64 C-34 62.1875 -34 62.1875 -37 60 C-38.2375 59.195625 -38.2375 59.195625 -39.5 58.375 C-45.5885541 52.5908736 -49.58453385 44.61843771 -50.3359375 36.265625 C-50.62116189 23.79900647 -48.38841707 15.48861269 -39.6484375 6.26953125 C-28.30273527 -3.45296579 -13.72886147 -5.96121616 0 0 Z " fill="#015FC9" transform="translate(278,378)"/>
<path d="M0 0 C6.93 0 13.86 0 21 0 C22.3125 7.6875 22.3125 7.6875 22.7043457 10.08081055 C23.45319568 14.25463328 24.25706425 17.63944958 27 21 C31.16199075 23.53519266 35.54597147 24.88922834 40.1875 26.3125 C46.10530627 28.17663451 51.25221851 30.54996959 56.53515625 33.86328125 C59.69872474 35.3222328 61.53738748 35.45910724 65 35 C67.60483964 33.89227638 69.9701294 32.48609958 72.375 31 C73.01566406 30.6184375 73.65632812 30.236875 74.31640625 29.84375 C75.88462755 28.90749848 77.44332645 27.95532843 79 27 C83.91935902 31.11619836 88.52647956 35.40410362 93 40 C92.50628906 40.77085937 92.01257813 41.54171875 91.50390625 42.3359375 C90.86324219 43.33882812 90.22257813 44.34171875 89.5625 45.375 C88.92441406 46.37273438 88.28632812 47.37046875 87.62890625 48.3984375 C84.94684868 52.68201146 84.45829097 55.9824761 85 61 C85.82700152 63.69724512 87.00311229 66.16121903 88.25 68.6875 C90.6571727 73.79921263 92.59849969 78.70528607 94.0625 84.1875 C95.73573638 89.90437737 95.73573638 89.90437737 99.875 94.078125 C105.07016034 96.3319078 110.52491851 97.60540377 116 99 C116 105.6 116 112.2 116 119 C108.25 120.75 108.25 120.75 105.82910156 121.27246094 C101.50045196 122.30392253 98.66468345 123.21827127 96 127 C94.8217795 129.65007392 93.93439217 132.36119232 93.0625 135.125 C91.40983666 140.14402286 89.72812087 144.81382638 87.125 149.4375 C84.59729757 154.32769555 83.64319925 158.58097052 85 164 C86.70562697 167.03536933 88.55607849 169.78442499 90.6640625 172.5546875 C92 175 92 175 91.46484375 177.0625 C89.77711846 179.29479799 87.96212612 181.19223532 85.9375 183.125 C83.08428067 185.77905 83.08428067 185.77905 81 189 C77.50216353 188.36766801 75.23077632 186.92531141 72.3125 184.9375 C68.2919978 182.52987368 65.31532401 181.01565117 60.59375 181.33984375 C56.4415823 182.39664547 52.69314971 184.30086258 48.88476562 186.22290039 C43.35003177 188.9867977 37.97722483 190.52874093 31.92578125 191.8828125 C27.53043268 193.5611432 25.83585885 196.28676612 23.8203125 200.41796875 C22.8823451 203.37033281 22.34593874 206.25139818 21.875 209.3125 C21.58625 211.189375 21.2975 213.06625 21 215 C14.07 215 7.14 215 0 215 C-1.25 207.875 -1.25 207.875 -1.61425781 205.66748047 C-2.4913685 201.00767195 -3.72661223 197.58074812 -7 194 C-10.1162674 192.42148643 -13.34481999 191.42928418 -16.6875 190.4375 C-22.88661232 188.52900924 -28.37947947 186.47306414 -33.91162109 183.04003906 C-37.87288001 181.06728211 -41.73852932 181.05011493 -46 182 C-48.76507596 183.34474198 -51.24258837 184.84627831 -53.7734375 186.58984375 C-55.99557175 187.99719544 -57.40655663 188.67867749 -60 189 C-62.29016466 187.08065216 -64.23281698 185.23652142 -66.25 183.0625 C-66.80429687 182.48564453 -67.35859375 181.90878906 -67.9296875 181.31445312 C-69.29794145 179.88722271 -70.6505038 178.44497942 -72 177 C-70.11968532 173.02030485 -67.69869993 169.47175588 -65.2421875 165.828125 C-62.95815058 160.62799063 -63.41135049 156.52618961 -65.390625 151.39453125 C-65.99708218 150.1936931 -66.61737174 148.99975906 -67.25 147.8125 C-70.23382256 141.90381485 -72.30645257 136.16685675 -73.8828125 129.70703125 C-75.29995467 126.27318676 -76.90277261 125.00488159 -80 123 C-82.43171209 121.94312793 -82.43171209 121.94312793 -84.9375 121.3125 C-85.75089844 121.08175781 -86.56429687 120.85101562 -87.40234375 120.61328125 C-90.24022848 119.94328441 -93.12377181 119.47937136 -96 119 C-96 112.4 -96 105.8 -96 99 C-88.3125 96.8125 -88.3125 96.8125 -85.91918945 96.15942383 C-81.11363251 94.72243531 -78.1137754 93.11803809 -75 89 C-73.73607111 86.17325221 -72.85834963 83.28406573 -72 80.3125 C-70.38802162 75.06381828 -68.76956861 70.15340525 -66.125 65.3125 C-64.01353702 61.29523602 -63.16204848 58.60873335 -64 54 C-65.43840241 50.84426543 -67.15916092 47.93497161 -69 45 C-70.00172443 43.33436921 -71.00215248 41.66795627 -72 40 C-70.09797311 37.96339574 -68.18061509 35.94668664 -66.25 33.9375 C-65.71117187 33.35677734 -65.17234375 32.77605469 -64.6171875 32.17773438 C-63.015625 30.52734375 -63.015625 30.52734375 -60 28 C-55.45770145 28.56840218 -51.79168301 31.39305952 -47.94921875 33.72265625 C-43.61875479 35.59823468 -40.24721416 35.78867989 -35.74682617 34.20922852 C-33.21164866 33.12191962 -30.73125368 31.95517365 -28.25 30.75 C-21.95435851 27.7763556 -15.82498171 25.01310369 -9.09375 23.14453125 C-5.43022389 21.14189478 -3.58908382 17.97241346 -2.40625 14.01196289 C-1.94722441 11.88674364 -1.58090572 9.77411288 -1.25 7.625 C-0.8375 5.10875 -0.425 2.5925 0 0 Z " fill="#FAFBFC" transform="translate(671,658)"/>
<path d="M0 0 C6.6 0 13.2 0 20 0 C21.8125 7.6875 21.8125 7.6875 22.36254883 10.08081055 C23.35087883 14.14565817 24.34842501 17.66853398 27 21 C29.3140387 22.27587495 29.3140387 22.27587495 32 23 C38.62817271 25.17144892 45.05790682 27.78927987 51.15234375 31.20703125 C56.08404487 33.97073703 60.36844271 35.37933619 66 34 C69.24285035 32.27838588 72.26830311 30.40515788 75.30078125 28.3359375 C78 27 78 27 80.02734375 27.46875 C82.65050636 29.50494751 84.93256134 31.74657611 87.25 34.125 C88.14203125 35.03507813 89.0340625 35.94515625 89.953125 36.8828125 C90.62859375 37.58148437 91.3040625 38.28015625 92 39 C90.79221081 42.27909122 89.45061534 44.88966763 87.375 47.6875 C84.38799856 52.45778589 83.85568765 56.49449724 85 62 C86.31011915 65.03307327 87.82063978 67.87787951 89.41796875 70.76953125 C91.63729962 75.30135008 92.72646327 79.96796622 93.84765625 84.87109375 C95.2777396 88.75413362 96.73937918 90.45126675 100 93 C102.70747268 94.21615939 105.4530315 95.03222067 108.3125 95.8125 C110.849375 96.534375 113.38625 97.25625 116 98 C116 104.6 116 111.2 116 118 C108.8125 119.75 108.8125 119.75 106.57739258 120.27246094 C102.18848251 121.3938408 99.22651135 122.82128882 96 126 C94.79442863 128.70047986 93.8655603 131.19265364 93 134 C92.3806135 135.93930184 91.75520625 137.87668717 91.125 139.8125 C90.79371094 140.83472656 90.46242188 141.85695313 90.12109375 142.91015625 C89.00394624 145.98912379 87.65284344 148.82337224 86.1875 151.75 C84.37583699 155.6950232 83.24912881 158.62897433 84.13671875 162.94140625 C86.01106788 167.41100802 89.02492884 171.20930881 92 175 C90.41332422 178.90285767 87.86649519 181.33520982 84.875 184.25 C83.96492187 185.14203125 83.05484375 186.0340625 82.1171875 186.953125 C81.06917969 187.96632813 81.06917969 187.96632813 80 189 C77.24417449 187.69492845 74.85334522 186.2039801 72.375 184.4375 C67.56675915 181.51915272 63.65226969 180.12367912 58 181 C53.59234412 182.61515748 49.4552048 184.80556661 45.28125 186.9375 C40.53616769 189.32281966 35.80386732 190.68076416 30.63671875 191.91796875 C27.27754933 193.29647235 25.98884929 195.00316573 24 198 C22.0062139 203.45667775 21.66244147 208.03802678 21 214 C14.07 214 7.14 214 0 214 C-1.25 206.3125 -1.25 206.3125 -1.61425781 203.91918945 C-2.42134985 199.3202767 -3.39991305 196.21685189 -7 193 C-9.75307688 191.71851002 -12.58292473 190.8898205 -15.5 190.0625 C-21.18608094 188.33463487 -26.37733945 186.47698943 -31.625 183.625 C-36.62599537 181.02832933 -39.40001641 179.91613221 -45 181 C-47.69094807 182.34956362 -50.19008657 183.83550293 -52.703125 185.4921875 C-55 187 -55 187 -59 189 C-63.29 184.71 -67.58 180.42 -72 176 C-65.125 165.125 -65.125 165.125 -64 164 C-62.77945329 156.63036988 -64.82762923 151.73673825 -68.3515625 145.3671875 C-70.54765906 140.88132202 -71.86230358 136.26360709 -73.08666992 131.43115234 C-74.38388787 126.73640321 -75.78175808 124.4596833 -80 122 C-82.73249652 121.02969206 -85.48202262 120.36789468 -88.3125 119.75 C-90.849375 119.1725 -93.38625 118.595 -96 118 C-96 111.4 -96 104.8 -96 98 C-91.49344935 96.49781645 -87.0493111 95.17880828 -82.46484375 93.9765625 C-78.79951617 92.52437249 -75.93901107 90.88430841 -74.12475586 87.24365234 C-73.33642842 85.13922109 -72.65383297 83.02495111 -72 80.875 C-70.37403873 75.84664299 -68.73507353 71.18542684 -66.125 66.5625 C-63.59038124 61.65892383 -62.66806126 57.4339832 -64 52 C-66.01388895 48.07928962 -68.41935417 44.56463308 -71 41 C-71.33 40.34 -71.66 39.68 -72 39 C-71.48050781 38.55269531 -70.96101563 38.10539063 -70.42578125 37.64453125 C-66.47320346 34.21798969 -62.64172918 30.75553321 -59 27 C-54.84065773 28.47589564 -51.35252918 30.58275358 -47.671875 32.9765625 C-42.27572708 35.04350805 -37.05196877 34.71548902 -31.7890625 32.390625 C-30.39287807 31.69319214 -29.00488263 30.97915531 -27.625 30.25 C-26.14765289 29.51067577 -24.66847927 28.77499006 -23.1875 28.04296875 C-22.4759375 27.68895996 -21.764375 27.33495117 -21.03125 26.97021484 C-16.82072786 24.95908323 -12.42664851 23.4563509 -8 22 C-7.01 21.67 -6.02 21.34 -5 21 C-4.03276241 18.78146811 -4.03276241 18.78146811 -3.4375 16.0625 C-3.07011719 14.58523438 -3.07011719 14.58523438 -2.6953125 13.078125 C-1.71345728 8.73148504 -0.82508022 4.37927193 0 0 Z " fill="#FAFBFC" transform="translate(383,705)"/>
<path d="M0 0 C3.01903303 2.62776194 5.80416478 5.43612996 8.58203125 8.31640625 C9.24589844 8.94933594 9.90976562 9.58226562 10.59375 10.234375 C21.47075163 21.30691824 27.50299672 39.02698411 28.01953125 54.31640625 C27.16459484 75.29084613 19.2765166 93.80262327 3.95703125 108.32421875 C-0.22142153 111.82917092 -4.66159394 114.66214954 -9.41796875 117.31640625 C-10.24683594 117.77917969 -11.07570313 118.24195313 -11.9296875 118.71875 C-28.67278734 127.15440061 -47.52123288 128.36176264 -65.41796875 123.31640625 C-74.8236246 120.16039135 -82.961234 115.91215719 -90.41796875 109.31640625 C-91.21976563 108.71054687 -92.0215625 108.1046875 -92.84765625 107.48046875 C-104.80056775 97.41677123 -112.5452435 81.65126304 -114.41796875 66.31640625 C-116.1496241 43.74888794 -111.80583254 25.38355983 -96.8125 7.87890625 C-72.33591288 -18.31463559 -28.27377421 -23.1615724 0 0 Z " fill="#FCFCFD" transform="translate(725.41796875,244.68359375)"/>
<path d="M0 0 C3.49278734 2.852443 6.76475056 5.86107147 10 9 C10.68449219 9.61101562 11.36898437 10.22203125 12.07421875 10.8515625 C20.52978304 18.65925447 26.2231577 28.70648385 30.875 39.125 C31.14900635 39.73279297 31.4230127 40.34058594 31.70532227 40.96679688 C36.14952013 51.43541313 37.5603741 61.74612905 37.5 73.0625 C37.49033203 74.96841919 37.49033203 74.96841919 37.48046875 76.9128418 C36.98294979 102.73964037 26.10910959 124.52031955 7.85986328 142.62841797 C-10.89491793 160.39888076 -35.93743421 168.5952772 -61.51953125 168.21484375 C-86.2632099 167.36014899 -109.83168314 155.00524685 -126.75 137.3125 C-145.03783501 115.69342367 -151.58362637 90.94081382 -150 63 C-148.04033004 41.93933887 -137.45226542 23.92353494 -123 9 C-122.4121875 8.32710937 -121.824375 7.65421875 -121.21875 6.9609375 C-111.12125946 -4.15515954 -97.0856608 -10.57724847 -83 -15 C-81.48986328 -15.50853516 -81.48986328 -15.50853516 -79.94921875 -16.02734375 C-53.06990989 -23.75291994 -22.07470374 -16.33960914 0 0 Z M-110 27 C-120.88311642 40.7555455 -127.63879587 55.62723331 -127.375 73.375 C-127.36339844 74.38377197 -127.35179687 75.39254395 -127.33984375 76.43188477 C-126.90354912 96.35867936 -119.07104274 113.26720014 -104.76953125 127.16796875 C-93.07351426 137.29668028 -77.45201824 144.00120034 -62 145 C-61.23945312 145.06445312 -60.47890625 145.12890625 -59.6953125 145.1953125 C-40.95606483 146.04968549 -21.83222704 138.47499391 -8 126 C-7.41347656 125.505 -6.82695313 125.01 -6.22265625 124.5 C7.70071815 111.87108898 13.44634365 94.01243843 15.32421875 75.8671875 C15.96939903 59.53745224 9.34019675 41.83282265 -1.375 29.5625 C-2.89592175 28.02092056 -4.43752678 26.49944909 -6 25 C-7.10408203 23.84951172 -7.10408203 23.84951172 -8.23046875 22.67578125 C-21.23686609 9.84367399 -39.23474788 4.06628222 -57.25 3.5625 C-77.01289531 4.24712686 -96.42965822 12.43965108 -110 27 Z " fill="#015FC9" transform="translate(738,226)"/>
<path d="M0 0 C2.52605806 2.2103008 4.93315685 4.49266553 7.3125 6.859375 C8.14201172 7.63667969 8.14201172 7.63667969 8.98828125 8.4296875 C16.55506092 16.22081913 22.56669966 29.06148315 23.3125 39.859375 C23.43238281 41.54933594 23.43238281 41.54933594 23.5546875 43.2734375 C24.17409325 60.8718478 18.63696471 75.81355249 6.69750977 88.64331055 C2.12230001 93.3139494 -2.91888912 96.78047624 -8.6875 99.859375 C-9.77611328 100.45492187 -9.77611328 100.45492187 -10.88671875 101.0625 C-24.8963117 108.00255714 -40.18277185 108.51255021 -54.953125 104.171875 C-70.41097624 98.73899005 -83.24293623 88.62373331 -90.6875 73.859375 C-97.35422303 58.35822145 -98.50218531 40.05670521 -92.3046875 24.1953125 C-84.98171952 9.08948001 -73.80488871 -1.94949017 -58.359375 -8.56640625 C-38.60376944 -15.39152124 -16.63297392 -13.24835713 0 0 Z " fill="#015FC8" transform="translate(717.6875,719.140625)"/>
<path d="M0 0 C12.31005008 9.35932647 20.58718822 21.342488 24.0859375 36.5859375 C25.65811379 54.40104006 23.77501134 69.77959077 13.0859375 84.5859375 C3.45116629 95.87576144 -9.84273397 105.45486043 -24.9140625 107.5859375 C-42.91267596 108.75413355 -59.65774729 105.71464334 -73.81030273 93.7253418 C-86.23665107 82.52332241 -92.91894263 68.02821248 -94.15234375 51.3671875 C-94.54536766 33.9913935 -89.07409157 19.34766503 -77.1171875 6.796875 C-76.39015625 6.06726563 -75.663125 5.33765625 -74.9140625 4.5859375 C-74.37265625 4.02132812 -73.83125 3.45671875 -73.2734375 2.875 C-53.24869288 -16.23952896 -21.67699895 -15.41649384 0 0 Z " fill="#025FC9" transform="translate(427.9140625,764.4140625)"/>
<path d="M0 0 C7.26239297 5.67565165 12.91490185 15.24362818 14.51171875 24.37890625 C15.64499803 35.12886975 12.8451005 43.78873495 6.82421875 52.69140625 C1.29251455 59.49965758 -6.7620663 64.95213826 -15.48828125 66.37890625 C-27.8821725 67.4063791 -37.75366146 66.00561576 -47.67578125 58.00390625 C-55.02708396 51.41308313 -59.94973547 43.30937247 -60.7265625 33.3125 C-60.95371422 22.6124586 -59.19910518 13.67436281 -52.3125 5.2265625 C-37.92953992 -9.34118936 -16.96770151 -11.05431103 0 0 Z " fill="#FAFBFC" transform="translate(704.48828125,736.62109375)"/>
<path d="M0 0 C6.37885224 4.66499395 11.48003759 9.90284001 15 17 C15.598125 18.175625 16.19625 19.35125 16.8125 20.5625 C19.87894134 29.51509885 18.9054825 39.97405522 15.2578125 48.5703125 C10.40000738 57.95402301 3.00589316 64.63693575 -6.96484375 68.3046875 C-18.29154038 70.89947772 -29.23679671 69.72786074 -39.16796875 63.6796875 C-47.05474586 58.26400191 -52.85131833 50.37935761 -55 41 C-56.37053166 29.27989561 -55.01414734 19.60052059 -48.25 9.75 C-36.809372 -4.43637872 -16.16351817 -9.30400043 0 0 Z " fill="#FBFCFC" transform="translate(412,780)"/>
<path d="M0 0 C4.07052347 2.1106418 6.28051835 3.77875001 8 8 C8.76806044 11.99539131 8.86098715 15.53605023 6.76171875 19.10546875 C3.36064202 23.19857598 1.16245889 24.79599444 -4.3125 25.3125 C-8.73267921 24.93790854 -10.62729281 23.83614013 -14 21 C-16.37302167 18.07327328 -16.95966626 16.31690796 -17.4375 12.5625 C-16.79904257 7.36363233 -14.73593816 4.44661514 -10.75 1.125 C-7.10370367 -0.36666668 -3.84538015 -0.68479373 0 0 Z " fill="#FAFCFD" transform="translate(174,619)"/>
<path d="M0 0 C4.10322512 2.08891461 6.27819939 3.76530121 8 8 C8.6479805 11.75146605 8.81929119 15.39865813 7.0546875 18.84765625 C4.51207703 22.10187782 2.03026656 24.15645584 -2 25 C-6.27539161 25.06095263 -9.22998353 24.48544517 -12.875 22.1875 C-16.07075726 18.89774988 -16.89369183 17.16938985 -17.3125 12.5625 C-16.87414476 7.56525029 -15.205439 5.31180127 -11.875 1.6875 C-7.86248649 -0.66767097 -4.54686069 -0.80050364 0 0 Z " fill="#F9FBFD" transform="translate(267,398)"/>
<path d="M0 0 C3.78171013 2.03630545 7.09528802 4.08475871 9 8 C9.78135113 12.05671193 9.89812436 15.47770745 7.7578125 19.10546875 C4.20648445 23.3900312 1.93744099 24.77396522 -3.75 25.4375 C-8.22242033 25.4044322 -10.45245693 23.55752835 -13.65234375 20.60546875 C-16.57637503 17.12205758 -16.36732748 13.33446432 -16 9 C-12.32317126 1.9187002 -8.0382172 -0.98714948 0 0 Z " fill="#F8FBFD" transform="translate(538,589)"/>
<path d="M0 0 C0.66 0.33 1.32 0.66 2 1 C0.54782324 2.50596108 -0.91192861 4.00462104 -2.375 5.5 C-3.18710938 6.3353125 -3.99921875 7.170625 -4.8359375 8.03125 C-7 10 -7 10 -9 10 C-9.28875 10.78375 -9.5775 11.5675 -9.875 12.375 C-11 15 -11 15 -13 17 C-12.51776551 12.36888598 -10.76628826 10.17235686 -7.625 6.8125 C-6.83351562 5.95269531 -6.04203125 5.09289062 -5.2265625 4.20703125 C-3 2 -3 2 0 0 Z " fill="#044DC3" transform="translate(175,508)"/>
<path d="M0 0 C0.66 0.33 1.32 0.66 2 1 C-1.72346836 5.42094803 -5.29521038 9.57833482 -10 13 C-10.66 12.67 -11.32 12.34 -12 12 C-8.04 8.04 -4.08 4.08 0 0 Z " fill="#0249C2" transform="translate(621,229)"/>
<path d="M0 0 C0.33 0.99 0.66 1.98 1 3 C-1.64 5.31 -4.28 7.62 -7 10 C-7.33 9.01 -7.66 8.02 -8 7 C-5.36 4.69 -2.72 2.38 0 0 Z " fill="#105BC7" transform="translate(308,717)"/>
<path d="M0 0 C0.33 0.99 0.66 1.98 1 3 C0.07421875 4.82421875 0.07421875 4.82421875 -1.3125 6.6875 C-1.76238281 7.31011719 -2.21226562 7.93273437 -2.67578125 8.57421875 C-3.11277344 9.04472656 -3.54976562 9.51523437 -4 10 C-4.66 10 -5.32 10 -6 10 C-6.33 10.99 -6.66 11.98 -7 13 C-7.66 12.67 -8.32 12.34 -9 12 C-6.03 8.04 -3.06 4.08 0 0 Z " fill="#0A50C3" transform="translate(533,385)"/>
<path d="M0 0 C0.66 0 1.32 0 2 0 C1.67 1.32 1.34 2.64 1 4 C0.34 4 -0.32 4 -1 4 C-1.33 7.3 -1.66 10.6 -2 14 C-2.66 13.34 -3.32 12.68 -4 12 C-3.73178514 7.26153746 -2.88422592 3.80717821 0 0 Z " fill="#0F51C5" transform="translate(803,210)"/>
<path d="M0 0 C0.33 0.99 0.66 1.98 1 3 C-1.25 5.5625 -1.25 5.5625 -4 8 C-5.32 7.67 -6.64 7.34 -8 7 C-5.36 4.69 -2.72 2.38 0 0 Z " fill="#0854C5" transform="translate(587,423)"/>
<path d="M0 0 C0.33 0.99 0.66 1.98 1 3 C-3.455 6.96 -3.455 6.96 -8 11 C-8.66 10.67 -9.32 10.34 -10 10 C-6.7 6.7 -3.4 3.4 0 0 Z " fill="#0144C1" transform="translate(473,883)"/>
<path d="M0 0 C0.66 0.33 1.32 0.66 2 1 C-1.07881696 4.87051275 -4.00073014 8.02911382 -8 11 C-6.52670958 5.99081256 -3.72484762 3.48192278 0 0 Z " fill="#0248C2" transform="translate(147,604)"/>
<path d="M0 0 C0 0.66 0 1.32 0 2 C-0.99 2 -1.98 2 -3 2 C-3.33 2.99 -3.66 3.98 -4 5 C-6.5625 6.1875 -6.5625 6.1875 -9 7 C-7.4576387 2.93377477 -4.5679954 0 0 0 Z " fill="#1557C7" transform="translate(775,779)"/>
<path d="M0 0 C0.66 0.99 1.32 1.98 2 3 C0.35 4.98 -1.3 6.96 -3 9 C-3.33 8.01 -3.66 7.02 -4 6 C-2.0625 2.8125 -2.0625 2.8125 0 0 Z " fill="#0750C3" transform="translate(344,780)"/>
<path d="M0 0 C3.76488042 1.72154788 6.15063897 3.99234114 9 7 C6 7 6 7 4.39453125 5.46875 C3.87246094 4.8190625 3.35039063 4.169375 2.8125 3.5 C2.28269531 2.8503125 1.75289062 2.200625 1.20703125 1.53125 C0.80871094 1.0259375 0.41039062 0.520625 0 0 Z " fill="#175DC8" transform="translate(727,246)"/>
<path d="M0 0 C0.66 0.33 1.32 0.66 2 1 C-0.35380297 4.92300495 -2.64464931 5.83857315 -7 7 C-4.66666667 4.66666667 -2.33333333 2.33333333 0 0 Z " fill="#044CC2" transform="translate(769,150)"/>
<path d="M0 0 C4.37859255 0.50522222 6.81651224 3.17827222 10 6 C9.34 6.66 8.68 7.32 8 8 C6.66372225 6.85760183 5.33104612 5.71098945 4 4.5625 C3.2575 3.92441406 2.515 3.28632813 1.75 2.62890625 C1.1725 2.09136719 0.595 1.55382812 0 1 C0 0.67 0 0.34 0 0 Z " fill="#155BC9" transform="translate(796,156)"/>
</svg>
