<?xml version="1.0" encoding="UTF-8"?>
<svg version="1.1" xmlns="http://www.w3.org/2000/svg" width="1024" height="1024">
<path d="M0 0 C337.92 0 675.84 0 1024 0 C1024 337.92 1024 675.84 1024 1024 C686.08 1024 348.16 1024 0 1024 C0 686.08 0 348.16 0 0 Z " fill="#FAFAFA" transform="translate(0,0)"/>
<path d="M0 0 C2.22318618 1.22723653 4.36189067 2.54346828 6.50341797 3.90820312 C8.17654562 4.92430424 9.85245558 5.93583461 11.53076172 6.94335938 C12.40845215 7.47203613 13.28614258 8.00071289 14.19042969 8.54541016 C18.89800908 11.30577492 23.72464178 13.82942536 28.56591797 16.34570312 C29.44578369 16.80750977 30.32564941 17.26931641 31.23217773 17.74511719 C34.12165359 19.2446288 37.02615314 20.70841823 39.94091797 22.15820312 C40.55938599 22.46661133 41.177854 22.77501953 41.81506348 23.09277344 C52.44391953 28.35577464 63.16763251 32.61668457 74.44091797 36.28320312 C75.60630096 36.66739914 75.60630096 36.66739914 76.79522705 37.05935669 C92.38923869 42.1909305 108.10785798 46.13015106 124.18310547 49.44726562 C125.19324707 49.6619751 126.20338867 49.87668457 127.24414062 50.09790039 C129.14371046 50.49937534 131.04695839 50.88399976 132.95410156 51.24780273 C138.35780553 52.38398987 141.38372578 53.65479782 144.94091797 58.15820312 C146.18085986 60.6380869 146.07500141 62.29706793 146.08808899 65.07208252 C146.09882195 66.63141258 146.09882195 66.63141258 146.10977173 68.22224426 C146.11246063 69.36803452 146.11514954 70.51382477 146.11791992 71.69433594 C146.12449112 72.89799301 146.13106232 74.10165009 146.13783264 75.34178162 C146.15762805 79.34829962 146.16925709 83.35477732 146.17919922 87.36132812 C146.18324912 88.74702728 146.18736611 90.13272623 146.1915493 91.51842499 C146.21063064 98.04742892 146.22484028 104.57642153 146.23316127 111.10544801 C146.24286393 118.5927704 146.26898528 126.07979162 146.30966216 133.56700826 C146.34012712 139.37881153 146.35465952 145.19053022 146.35794228 151.0024116 C146.36026391 154.45954032 146.36883282 157.91634868 146.39440346 161.3733902 C146.49896978 177.79191627 145.55679524 193.1294098 141.94091797 209.15820312 C141.63481653 210.62262038 141.33111946 212.087543 141.03022766 213.55303955 C135.05641367 241.75806864 118.1446513 265.33161909 98.94091797 286.15820312 C98.18810547 287.01414062 97.43529297 287.87007813 96.65966797 288.75195312 C92.66310499 293.29599048 88.62441377 297.51703093 83.99169922 301.41210938 C82.60439209 302.5933023 81.24767053 303.81122344 79.92138672 305.06054688 C65.62399721 318.50660321 49.12573 329.28231477 32.48730469 339.56982422 C30.1006267 341.0585804 27.73810012 342.57818033 25.38232422 344.11523438 C16.56955864 349.83547963 7.67801601 355.26344495 -3.05908203 356.15820312 C-3.84541016 356.23296875 -4.63173828 356.30773437 -5.44189453 356.38476562 C-20.65078331 357.20803881 -32.93070343 347.1303493 -45.05908203 339.15820312 C-46.61238362 338.14895951 -48.16576715 337.139842 -49.71923828 336.13085938 C-93.97616027 307.18944272 -137.9117146 269.03110807 -152.24658203 216.15820312 C-152.48465576 215.30025146 -152.72272949 214.4422998 -152.96801758 213.55834961 C-158.02333212 193.87044219 -158.5233837 173.96122508 -158.49267578 153.75195312 C-158.49608925 151.76106497 -158.49951397 149.77017664 -158.50402886 147.77929068 C-158.51791484 141.56326406 -158.51663771 135.34737546 -158.50512695 129.13134766 C-158.49355754 122.74270462 -158.50790373 116.35447709 -158.53452343 109.9658885 C-158.55668591 104.437554 -158.56331965 98.90935004 -158.55744702 93.38097429 C-158.55408995 90.09681658 -158.558143 86.81298563 -158.57369804 83.52885437 C-158.58855459 79.88480206 -158.5779755 76.24167917 -158.56079102 72.59765625 C-158.57045898 71.52235153 -158.58012695 70.44704681 -158.59008789 69.3391571 C-158.53035684 63.29830831 -158.11357574 59.74584942 -154.05908203 55.15820312 C-150.66674242 52.61661454 -147.73359291 51.67747198 -143.57861328 51.01757812 C-142.5103833 50.83799561 -141.44215332 50.65841309 -140.34155273 50.47338867 C-139.1964624 50.28687744 -138.05137207 50.10036621 -136.87158203 49.90820312 C-123.00346204 47.48396794 -109.55173046 44.15906487 -96.05908203 40.15820312 C-95.06344238 39.86606934 -94.06780273 39.57393555 -93.04199219 39.27294922 C-65.33265475 31.00443544 -39.0381166 18.13508798 -15.30908203 1.61914062 C-10.63917028 -1.41305902 -5.17627171 -2.11617084 0 0 Z " fill="#FAFAFA" transform="translate(750.05908203125,193.841796875)"/>
<path d="M0 0 C0.89988962 -0.00407553 1.79977924 -0.00815105 2.72693825 -0.01235008 C7.4996784 -0.03312496 12.27239062 -0.04745785 17.04516602 -0.05688477 C20.94246272 -0.06569815 24.83939749 -0.08647357 28.73657227 -0.1184082 C70.88217846 -0.45615502 70.88217846 -0.45615502 89.23828125 4.23828125 C90.16261963 4.47172745 91.08695801 4.70517365 92.03930664 4.94569397 C120.47604018 12.23295433 147.69603616 24.15445824 170.23828125 43.23828125 C171.60919922 44.27855469 171.60919922 44.27855469 173.0078125 45.33984375 C173.74386719 45.96632813 174.47992187 46.5928125 175.23828125 47.23828125 C175.23828125 47.89828125 175.23828125 48.55828125 175.23828125 49.23828125 C175.77453125 49.44324219 176.31078125 49.64820313 176.86328125 49.859375 C180.20918232 51.80197875 182.63920154 54.48288067 185.23828125 57.30078125 C186.08942505 58.22201782 186.08942505 58.22201782 186.95776367 59.16186523 C193.44312664 66.34854293 198.89462812 74.18488915 204.23828125 82.23828125 C204.96789062 83.3159375 205.6975 84.39359375 206.44921875 85.50390625 C223.58719195 111.92212581 235.8129514 148.53305735 233.23828125 180.23828125 C231.32308584 187.96828683 226.3359014 194.48652594 219.76861721 198.89678323 C211.3742647 203.47676619 204.12742066 204.08882989 194.70872498 203.98672485 C193.16764626 203.99221618 191.62657507 204.00032901 190.08552223 204.01081216 C185.88078536 204.03185662 181.67690685 204.0158142 177.47220814 203.99331117 C172.92611776 203.97554798 168.38013494 203.99253681 163.83404541 204.0050354 C154.94043096 204.02396926 146.04714207 204.01084922 137.15355187 203.98650952 C126.78945218 203.95920661 116.42542919 203.96255074 106.06130267 203.96677618 C87.56562274 203.97314972 69.07009708 203.94985593 50.57446289 203.91064453 C32.64017032 203.87263336 14.70605849 203.85847165 -3.22827148 203.86962891 C-22.77404199 203.88175277 -42.31973312 203.88137562 -61.86549705 203.85865724 C-63.9508123 203.85624274 -66.03612754 203.85383077 -68.12144279 203.85142136 C-69.14736824 203.85021428 -70.17329368 203.8490072 -71.23030778 203.84776355 C-78.44934502 203.84001509 -85.66835265 203.84078863 -92.88739204 203.84459305 C-101.68789356 203.84884339 -110.48823704 203.83834005 -119.28869409 203.80936594 C-123.77617583 203.79490897 -128.26342779 203.78669723 -132.75092888 203.79585266 C-136.86346383 203.80403883 -140.97552548 203.79358151 -145.08798885 203.76860051 C-146.57098132 203.76277183 -148.0540188 203.76357066 -149.53699941 203.77188666 C-160.94841095 203.83003913 -171.4108084 202.64065078 -179.96875 194.41796875 C-186.61803091 186.33452921 -188.42964131 179.09056681 -187.56738281 168.95361328 C-184.65026307 142.11497656 -177.43792621 117.00859183 -164.76171875 93.23828125 C-164.24222656 92.24699219 -163.72273438 91.25570312 -163.1875 90.234375 C-154.03260832 73.65410517 -141.58562872 57.16075531 -126.76171875 45.23828125 C-126.10171875 45.23828125 -125.44171875 45.23828125 -124.76171875 45.23828125 C-124.76171875 44.57828125 -124.76171875 43.91828125 -124.76171875 43.23828125 C-123.26806641 41.91308594 -123.26806641 41.91308594 -121.17578125 40.41015625 C-120.40878906 39.85714844 -119.64179688 39.30414062 -118.8515625 38.734375 C-118.03816406 38.15816406 -117.22476563 37.58195313 -116.38671875 36.98828125 C-115.61199219 36.42753906 -114.83726562 35.86679687 -114.0390625 35.2890625 C-80.29991242 11.14186914 -41.07299357 0.15854622 0 0 Z " fill="#FAFAFA" transform="translate(348.76171875,587.76171875)"/>
<path d="M0 0 C1.85842529 0.00737183 1.85842529 0.00737183 3.75439453 0.01489258 C29.74774342 0.34665741 54.18287258 9.52540372 73.375 27.3125 C74.28507813 28.13105469 75.19515625 28.94960938 76.1328125 29.79296875 C95.63825672 48.18459234 107.50307785 75.0083989 108.50390625 101.7578125 C108.98038017 132.69685205 97.44007893 159.69705479 76.1875 181.875 C55.18116602 202.3619466 28.00082076 211.75019445 -0.91479492 211.67822266 C-10.9316411 211.53513423 -20.09980292 210.4092569 -29.625 207.3125 C-30.59518066 206.99901611 -30.59518066 206.99901611 -31.58496094 206.67919922 C-57.56840223 197.9416944 -80.54452981 178.58895821 -92.79589844 153.95849609 C-104.25610952 129.22674857 -109.0774904 99.57923346 -99.625 73.3125 C-99.41601074 72.69310547 -99.20702148 72.07371094 -98.99169922 71.43554688 C-95.5985197 61.44155297 -90.68633866 52.91810427 -84.625 44.3125 C-84.04878906 43.49136719 -83.47257812 42.67023438 -82.87890625 41.82421875 C-67.15555007 20.59580261 -42.41933645 5.64646588 -16.46728516 0.70507812 C-10.99307342 -0.05102327 -5.51758437 -0.02580407 0 0 Z " fill="#FAFAFA" transform="translate(369.625,312.6875)"/>
<path d="M0 0 C0.86646086 -0.00282738 1.73292171 -0.00565475 2.62563896 -0.00856781 C7.22446871 -0.0235131 11.82326754 -0.03276808 16.42211914 -0.03710938 C20.17384705 -0.04146894 23.92534174 -0.05526857 27.67700195 -0.078125 C55.52860061 -0.24441515 82.02368427 0.59304962 109.02734375 8.203125 C110.28828857 8.55818115 110.28828857 8.55818115 111.57470703 8.92041016 C162.08778974 23.57239566 204.64339222 56.44623446 230.05859375 102.5546875 C230.71692197 103.7697096 231.37314449 104.98587479 232.02734375 106.203125 C232.36121094 106.82026367 232.69507813 107.43740234 233.0390625 108.07324219 C247.88012638 135.77940455 263.5470647 179.4560275 254.82421875 211.046875 C250.09977727 223.83065782 240.57397834 235.32088489 228.671875 242.0546875 C227.79917969 242.43367187 226.92648437 242.81265625 226.02734375 243.203125 C225.47258399 243.4522 224.91782423 243.701275 224.34625357 243.95789772 C216.89940181 246.88968509 209.36816241 246.62474957 201.49909973 246.59080505 C199.92150754 246.59498192 198.34391836 246.60046136 196.76633471 246.60712487 C192.44683443 246.62155251 188.12752539 246.61734312 183.80801475 246.60995805 C179.14322178 246.60522191 174.47846992 246.61774034 169.81369019 246.62797546 C160.68012607 246.64516136 151.54663076 246.64600372 142.41305468 246.64076256 C134.98632245 246.63671843 127.55961052 246.63816732 120.13287926 246.64351082 C118.54632652 246.64463345 118.54632652 246.64463345 116.92772221 246.64577876 C114.77884525 246.64731028 112.62996829 246.64884862 110.48109134 246.65039373 C90.33331539 246.66411859 70.18557827 246.65868169 50.0378032 246.64720852 C31.62142746 246.63728117 13.20515227 246.65020824 -5.21120795 246.67414271 C-24.13475859 246.69855039 -43.05826244 246.70813717 -61.98182851 246.70148998 C-72.60041019 246.69800083 -83.21891461 246.70020951 -93.83748436 246.71774101 C-102.87912956 246.73248405 -111.92064311 246.73307122 -120.96228578 246.7156701 C-125.57164667 246.70717412 -130.18077261 246.70497606 -134.79012108 246.72032166 C-139.01763063 246.73422117 -143.2447051 246.7293385 -147.47218982 246.71008242 C-148.9936929 246.70633809 -150.51523128 246.70919873 -152.03670277 246.71969407 C-166.510027 246.81235733 -178.56174287 244.47184089 -189.97265625 235.203125 C-191.51953125 234.089375 -191.51953125 234.089375 -193.09765625 232.953125 C-201.71989445 224.70576672 -208.4988022 214.15125262 -209.140625 202.03125 C-209.37815978 158.5148781 -194.29998536 113.19812036 -166.97265625 79.203125 C-166.30621094 78.34589844 -165.63976562 77.48867188 -164.953125 76.60546875 C-153.62708217 62.15191903 -140.65992894 47.98332811 -124.97265625 38.203125 C-124.34020996 37.80029297 -123.70776367 37.39746094 -123.05615234 36.98242188 C-93.40917276 18.12664442 -61.96387995 5.72563761 -26.97265625 1.203125 C-25.74861084 1.0273291 -24.52456543 0.8515332 -23.26342773 0.67041016 C-15.54933702 -0.1668281 -7.75047128 0.01719668 0 0 Z M-112.97265625 57.203125 C-113.5670752 57.61046875 -114.16149414 58.0178125 -114.77392578 58.4375 C-119.49874799 61.65605542 -119.49874799 61.65605542 -123.97265625 65.203125 C-123.97265625 65.863125 -123.97265625 66.523125 -123.97265625 67.203125 C-124.56183838 67.46996094 -125.15102051 67.73679687 -125.75805664 68.01171875 C-138.8764422 75.06912384 -149.02172906 91.03879456 -156.97265625 103.203125 C-157.42866211 103.90018555 -157.88466797 104.59724609 -158.35449219 105.31542969 C-175.26477516 131.61893377 -184.2108033 162.1923196 -186.97265625 193.203125 C-187.05427002 193.97567627 -187.13588379 194.74822754 -187.2199707 195.54418945 C-187.95504691 203.40544737 -184.06581597 210.44281318 -179.1796875 216.3828125 C-169.99286339 225.2097404 -158.6942319 225.79250553 -146.57008362 225.72451782 C-145.03058428 225.73056859 -143.49109095 225.73835142 -141.95160812 225.74770296 C-137.74673634 225.76818103 -133.54220716 225.76392063 -129.33730781 225.75534177 C-124.79254325 225.75039235 -120.2478596 225.76845393 -115.703125 225.78341675 C-106.80979275 225.80887262 -97.91658137 225.812503 -89.02321882 225.80781622 C-81.79292565 225.80424567 -74.56266909 225.80775813 -67.33238029 225.81626511 C-65.78699828 225.81805067 -65.78699828 225.81805067 -64.21039642 225.81987231 C-62.11724106 225.82229589 -60.02408571 225.82472415 -57.93093037 225.82715707 C-38.31636414 225.84889299 -18.70186674 225.84458994 0.91270334 225.83238737 C18.84536162 225.82204768 36.77780267 225.84456603 54.71041798 225.88258381 C73.13908696 225.92135277 91.5676532 225.93785066 109.99636322 225.93033731 C120.33655548 225.9265154 130.67656279 225.93146776 141.01672173 225.95976639 C149.81834753 225.98361143 158.61967453 225.98638442 167.42130452 225.96218605 C171.90902738 225.9504211 176.39620391 225.94817331 180.88389015 225.97219086 C184.99791846 225.99395226 189.11094577 225.98765323 193.22492767 225.95966749 C194.70730549 225.95438533 196.18976232 225.95907008 197.67206245 225.97513922 C208.48209763 226.08412632 217.28133101 224.36433576 225.52332205 216.96117556 C231.81659888 210.46529523 234.13177931 204.86087667 234.40234375 195.890625 C233.76193564 168.67328041 225.25119118 139.87270065 212.02734375 116.203125 C211.68477539 115.58276367 211.34220703 114.96240234 210.98925781 114.32324219 C203.46550541 100.83938769 194.35322072 88.55991969 183.90234375 77.203125 C183.34579102 76.59718506 182.78923828 75.99124512 182.21582031 75.36694336 C180.86413288 73.93565843 179.45090486 72.56294456 178.02734375 71.203125 C177.36734375 71.203125 176.70734375 71.203125 176.02734375 71.203125 C175.69734375 70.213125 175.36734375 69.223125 175.02734375 68.203125 C173.08726878 66.42797139 171.16358321 64.80870121 169.08984375 63.203125 C168.47157715 62.72254639 167.85331055 62.24196777 167.21630859 61.74682617 C159.55211624 55.92048554 151.39354264 50.94888538 143.02734375 46.203125 C142.38104004 45.83590332 141.73473633 45.46868164 141.06884766 45.09033203 C122.20341594 34.57881564 101.1824799 28.12596915 80.02734375 24.203125 C79.1431073 24.03089417 78.25887085 23.85866333 77.34783936 23.68121338 C67.51376887 21.9477039 57.85162085 21.89343071 47.90234375 21.90234375 C46.06551011 21.89844338 44.22867735 21.89410602 42.3918457 21.88935852 C38.55595977 21.88193867 34.72016593 21.882155 30.88427734 21.88745117 C26.0315073 21.8932166 21.17912258 21.87636493 16.32641602 21.8531065 C12.53393445 21.83817883 8.7415414 21.8375233 4.94903564 21.84061623 C3.16334272 21.84011172 1.37764363 21.83504326 -0.40802002 21.82480431 C-41.153 21.61992428 -79.5128564 34.02329995 -112.97265625 57.203125 Z " fill="#010101" transform="translate(347.97265625,565.796875)"/>
<path d="M0 0 C2.22318618 1.22723653 4.36189067 2.54346828 6.50341797 3.90820312 C8.17654562 4.92430424 9.85245558 5.93583461 11.53076172 6.94335938 C12.40845215 7.47203613 13.28614258 8.00071289 14.19042969 8.54541016 C18.89800908 11.30577492 23.72464178 13.82942536 28.56591797 16.34570312 C29.44578369 16.80750977 30.32564941 17.26931641 31.23217773 17.74511719 C34.12165359 19.2446288 37.02615314 20.70841823 39.94091797 22.15820312 C40.55938599 22.46661133 41.177854 22.77501953 41.81506348 23.09277344 C52.44391953 28.35577464 63.16763251 32.61668457 74.44091797 36.28320312 C75.60630096 36.66739914 75.60630096 36.66739914 76.79522705 37.05935669 C92.38923869 42.1909305 108.10785798 46.13015106 124.18310547 49.44726562 C125.19324707 49.6619751 126.20338867 49.87668457 127.24414062 50.09790039 C129.14371046 50.49937534 131.04695839 50.88399976 132.95410156 51.24780273 C138.35780553 52.38398987 141.38372578 53.65479782 144.94091797 58.15820312 C146.18085986 60.6380869 146.07500141 62.29706793 146.08808899 65.07208252 C146.09882195 66.63141258 146.09882195 66.63141258 146.10977173 68.22224426 C146.11246063 69.36803452 146.11514954 70.51382477 146.11791992 71.69433594 C146.12449112 72.89799301 146.13106232 74.10165009 146.13783264 75.34178162 C146.15762805 79.34829962 146.16925709 83.35477732 146.17919922 87.36132812 C146.18324912 88.74702728 146.18736611 90.13272623 146.1915493 91.51842499 C146.21063064 98.04742892 146.22484028 104.57642153 146.23316127 111.10544801 C146.24286393 118.5927704 146.26898528 126.07979162 146.30966216 133.56700826 C146.34012712 139.37881153 146.35465952 145.19053022 146.35794228 151.0024116 C146.36026391 154.45954032 146.36883282 157.91634868 146.39440346 161.3733902 C146.49896978 177.79191627 145.55679524 193.1294098 141.94091797 209.15820312 C141.63481653 210.62262038 141.33111946 212.087543 141.03022766 213.55303955 C135.05641367 241.75806864 118.1446513 265.33161909 98.94091797 286.15820312 C98.18810547 287.01414062 97.43529297 287.87007813 96.65966797 288.75195312 C92.66310499 293.29599048 88.62441377 297.51703093 83.99169922 301.41210938 C82.60439209 302.5933023 81.24767053 303.81122344 79.92138672 305.06054688 C65.62399721 318.50660321 49.12573 329.28231477 32.48730469 339.56982422 C30.1006267 341.0585804 27.73810012 342.57818033 25.38232422 344.11523438 C16.56955864 349.83547963 7.67801601 355.26344495 -3.05908203 356.15820312 C-3.84541016 356.23296875 -4.63173828 356.30773437 -5.44189453 356.38476562 C-20.65078331 357.20803881 -32.93070343 347.1303493 -45.05908203 339.15820312 C-46.61238362 338.14895951 -48.16576715 337.139842 -49.71923828 336.13085938 C-93.97616027 307.18944272 -137.9117146 269.03110807 -152.24658203 216.15820312 C-152.48465576 215.30025146 -152.72272949 214.4422998 -152.96801758 213.55834961 C-158.02333212 193.87044219 -158.5233837 173.96122508 -158.49267578 153.75195312 C-158.49608925 151.76106497 -158.49951397 149.77017664 -158.50402886 147.77929068 C-158.51791484 141.56326406 -158.51663771 135.34737546 -158.50512695 129.13134766 C-158.49355754 122.74270462 -158.50790373 116.35447709 -158.53452343 109.9658885 C-158.55668591 104.437554 -158.56331965 98.90935004 -158.55744702 93.38097429 C-158.55408995 90.09681658 -158.558143 86.81298563 -158.57369804 83.52885437 C-158.58855459 79.88480206 -158.5779755 76.24167917 -158.56079102 72.59765625 C-158.57045898 71.52235153 -158.58012695 70.44704681 -158.59008789 69.3391571 C-158.53035684 63.29830831 -158.11357574 59.74584942 -154.05908203 55.15820312 C-150.66674242 52.61661454 -147.73359291 51.67747198 -143.57861328 51.01757812 C-142.5103833 50.83799561 -141.44215332 50.65841309 -140.34155273 50.47338867 C-139.1964624 50.28687744 -138.05137207 50.10036621 -136.87158203 49.90820312 C-123.00346204 47.48396794 -109.55173046 44.15906487 -96.05908203 40.15820312 C-95.06344238 39.86606934 -94.06780273 39.57393555 -93.04199219 39.27294922 C-65.33265475 31.00443544 -39.0381166 18.13508798 -15.30908203 1.61914062 C-10.63917028 -1.41305902 -5.17627171 -2.11617084 0 0 Z M-11.07470703 26.39648438 C-11.90196289 26.88133301 -12.72921875 27.36618164 -13.58154297 27.86572266 C-14.48163086 28.39536621 -15.38171875 28.92500977 -16.30908203 29.47070312 C-52.25749307 50.2462438 -90.01975394 63.72269856 -130.73779297 71.63671875 C-133.0680354 72.0625594 -133.0680354 72.0625594 -135.05908203 73.15820312 C-135.17691786 87.59008631 -135.26421834 102.02189282 -135.31814289 116.45416164 C-135.34370911 123.15834026 -135.37908579 129.86215531 -135.4362793 136.56616211 C-135.49129382 143.0566477 -135.52064653 149.5468222 -135.53346825 156.03752327 C-135.54258516 158.49260405 -135.56038066 160.94767115 -135.58773232 163.4026165 C-136.04770439 206.46780606 -123.07830758 241.30799556 -93.05908203 272.15820312 C-92.39457031 272.84849609 -91.73005859 273.53878906 -91.04541016 274.25 C-82.11369746 283.50041788 -73.13238158 292.30675786 -62.74804688 299.91357422 C-61.04799467 301.16637361 -59.37489934 302.44938007 -57.70361328 303.74023438 C-50.04014754 309.59127754 -42.03114959 314.83809222 -33.87158203 319.97070312 C-32.88625488 320.59299805 -31.90092773 321.21529297 -30.88574219 321.85644531 C-18.72804324 329.88550545 -18.72804324 329.88550545 -5.05908203 334.15820312 C-2.50654004 333.36183379 -0.28122643 332.51803316 2.12841797 331.40820312 C2.82547852 331.09310791 3.52253906 330.7780127 4.24072266 330.45336914 C25.44184041 320.55275824 45.19409838 306.14331146 62.46923828 290.48291016 C64.30102003 288.83406348 66.18297742 287.248155 68.06591797 285.65820312 C77.55428723 277.30678443 86.23953821 268.18034416 93.94091797 258.15820312 C94.58158203 257.34609375 95.22224609 256.53398437 95.88232422 255.69726562 C117.68188894 227.07157458 125.0042105 195.1290038 124.52685547 159.58398438 C124.51562119 157.06667611 124.50710113 154.54935445 124.50112915 152.0320282 C124.47856367 145.50702658 124.41993031 138.98286697 124.35290527 132.45819092 C124.29077388 125.75999656 124.26396507 119.06168284 124.23388672 112.36328125 C124.17014648 99.29456918 124.06937948 86.22643157 123.94091797 73.15820312 C121.39433585 72.51917139 118.84760298 71.88075124 116.30078125 71.24267578 C115.22846001 70.97349083 115.22846001 70.97349083 114.13447571 70.6988678 C110.15763637 69.70305641 106.17705223 68.7321286 102.18310547 67.80664062 C78.64563112 62.27693446 55.67174622 54.82245187 33.94091797 44.15820312 C33.27592285 43.83674316 32.61092773 43.5152832 31.92578125 43.18408203 C25.18231981 39.91959143 18.53691064 36.47645962 11.90576172 32.99023438 C10.85815674 32.44020752 9.81055176 31.89018066 8.73120117 31.32348633 C6.64540134 30.22612878 4.56184127 29.12450184 2.48071289 28.01831055 C1.53172119 27.5179126 0.58272949 27.01751465 -0.39501953 26.50195312 C-1.24628418 26.05013672 -2.09754883 25.59832031 -2.97460938 25.1328125 C-6.5083887 23.48056993 -7.87893666 24.50027551 -11.07470703 26.39648438 Z " fill="#020202" transform="translate(750.05908203125,193.841796875)"/>
<path d="M0 0 C0.66257812 0.04108887 1.32515625 0.08217773 2.0078125 0.12451172 C35.62161544 2.41569646 67.85770471 17.31828852 90.6484375 42.44140625 C113.47081893 68.75970159 125.33352099 102.15275319 123 137 C120.75173679 166.62417402 109.26228952 192.96810824 89.0703125 214.734375 C87.36134623 216.6045645 85.80627469 218.50573184 84.25 220.5 C67.07620328 240.60706227 36.78714628 253.20374021 11 256 C5.74859441 256.28546905 0.50775506 256.34087575 -4.75 256.3125 C-5.45277069 256.31067719 -6.15554138 256.30885437 -6.87960815 256.30697632 C-43.25224814 256.1482928 -72.75943847 241.51846443 -98.6875 216.6875 C-122.61299829 192.20559478 -134.44829876 158.78522252 -134.43652344 124.87524414 C-134.01467799 106.28728542 -129.3237583 88.56185824 -121 72 C-120.45786865 70.91936279 -120.45786865 70.91936279 -119.90478516 69.81689453 C-115.22340472 60.67153523 -109.86091071 52.68935401 -103 45 C-102.24203125 44.09894531 -101.4840625 43.19789063 -100.703125 42.26953125 C-84.39311074 23.37443303 -61.91124955 10.56936674 -38 4 C-36.92234375 3.65839844 -35.8446875 3.31679688 -34.734375 2.96484375 C-30.24484532 1.80489204 -25.85891833 1.298308 -21.25 0.875 C-20.35676025 0.7915332 -19.46352051 0.70806641 -18.54321289 0.62207031 C-12.33186402 0.06753611 -6.23472053 -0.38967003 0 0 Z M-86.63867188 59.40039062 C-102.78761305 78.37597573 -111.17500244 101.35482416 -111.1875 126.0625 C-111.19974609 127.30966797 -111.21199219 128.55683594 -111.22460938 129.84179688 C-111.2436343 142.03677602 -109.88592288 153.13238731 -105.375 164.5 C-104.84495361 165.85544922 -104.84495361 165.85544922 -104.30419922 167.23828125 C-93.5797141 193.833102 -73.12993562 214.61194883 -46.99072266 226.1640625 C-33.28831028 231.91793299 -20.03472247 234.38297095 -5.1875 234.3125 C-3.94645508 234.30686035 -2.70541016 234.3012207 -1.42675781 234.29541016 C7.12777319 234.18175485 14.82648979 233.69053204 23 231 C23.61133789 230.80664062 24.22267578 230.61328125 24.85253906 230.4140625 C48.93785293 222.66851243 70.36978244 207.54675806 84 186 C84.51046875 185.23429688 85.0209375 184.46859375 85.546875 183.6796875 C99.86348973 161.31920161 104.40538298 132.82260675 99 107 C93.95640947 86.79540655 84.51239291 68.94398824 70 54 C69.45085937 53.38898438 68.90171875 52.77796875 68.3359375 52.1484375 C51.57322107 34.06452174 24.52514644 23.61760448 0.34375 22.67578125 C-33.90471582 21.8857359 -63.21162671 33.64063826 -86.63867188 59.40039062 Z " fill="#010101" transform="translate(377,290)"/>
<path d="M0 0 C2.93885125 1.3081843 3.83082906 2.39699487 6 5 C7.47113325 9.0476943 7.458011 11.86040652 5.84765625 15.8671875 C3.72414179 19.46773422 1.27325142 22.20542615 -1.625 25.1875 C-5.37314632 29.13806646 -8.98232901 33.10865246 -12.375 37.375 C-17.20248657 43.39173965 -22.48270464 48.94530903 -27.76953125 54.5546875 C-30.7135475 57.68118062 -33.5710669 60.86882842 -36.37109375 64.125 C-38.33665089 66.38751181 -40.35673309 68.59690683 -42.375 70.8125 C-47.10951663 76.05515044 -51.55162216 81.51478221 -56 87 C-57.95014046 89.40017288 -59.91549318 91.71212666 -62 94 C-62.66 94 -63.32 94 -64 94 C-64.23460937 94.55429687 -64.46921875 95.10859375 -64.7109375 95.6796875 C-66.32454292 98.58417725 -68.34723795 100.70620005 -70.625 103.125 C-74.81815794 107.64024108 -78.67795746 112.28673494 -82.40625 117.19921875 C-82.9321875 117.79347656 -83.458125 118.38773437 -84 119 C-84.66 119 -85.32 119 -86 119 C-86.268125 119.598125 -86.53625 120.19625 -86.8125 120.8125 C-88.03403928 123.06270394 -89.04139516 124.36557803 -91 126 C-93.0859375 126.6171875 -93.0859375 126.6171875 -95.375 126.875 C-96.12523437 126.97554688 -96.87546875 127.07609375 -97.6484375 127.1796875 C-102.69900778 126.79376353 -106.16383461 123.0854479 -109.59082031 119.65209961 C-110.46812805 118.7778685 -111.34543579 117.90363739 -112.24932861 117.00291443 C-113.19244243 116.05290453 -114.1353702 115.10270992 -115.078125 114.15234375 C-116.05470871 113.17456681 -117.03166361 112.19716048 -118.00897217 111.22010803 C-120.04946303 109.17805776 -122.08656393 107.13270589 -124.12109375 105.0847168 C-126.73098312 102.457782 -129.3474635 99.83753463 -131.96626663 97.2194891 C-133.98081593 95.20466824 -135.9927514 93.18725468 -138.00380707 91.16894722 C-138.96808608 90.20148423 -139.93297354 89.2346273 -140.89847565 88.26838493 C-142.24375863 86.92093875 -143.58535042 85.56981031 -144.92675781 84.21850586 C-146.07328827 83.06625771 -146.07328827 83.06625771 -147.24298096 81.89073181 C-150.1133174 78.80195685 -150.41653584 76.32301582 -150.33203125 72.10546875 C-149.71634729 68.20130813 -147.96297593 66.47922475 -145 64 C-141.04189788 62.72596351 -137.63777947 62.20014139 -133.82543945 64.06201172 C-129.9427169 66.72519772 -126.80823812 69.94597348 -123.51171875 73.29296875 C-122.80852005 73.99899734 -122.10532135 74.70502594 -121.3808136 75.43244934 C-119.14495482 77.67946651 -116.91616684 79.93335169 -114.6875 82.1875 C-113.16908164 83.71595375 -111.65020645 85.24395381 -110.13085938 86.77148438 C-106.41526391 90.50908261 -102.70544316 94.25233802 -99 98 C-96.12953805 96.62291256 -94.16404272 95.38241642 -92.01171875 93.0234375 C-91.47409912 92.43949219 -90.93647949 91.85554688 -90.38256836 91.25390625 C-89.54350952 90.32384766 -89.54350952 90.32384766 -88.6875 89.375 C-88.10427979 88.73691406 -87.52105957 88.09882813 -86.92016602 87.44140625 C-81.93659623 81.97416365 -77.06507312 76.42209143 -72.265625 70.79296875 C-66.67899933 64.2464232 -61.03569424 57.78095218 -55.22265625 51.43359375 C-51.1506196 46.97510722 -47.20157882 42.41502272 -43.2890625 37.81640625 C-37.4732329 30.98739241 -31.56436336 24.27921381 -25.4765625 17.69140625 C-21.42274176 13.28591336 -17.44037549 8.8404798 -13.75 4.125 C-9.82664972 -0.6390682 -5.78278451 -0.93588506 0 0 Z " fill="#010101" transform="translate(820,310)"/>
<path d="M0 0 C3.76969801 0.72450653 5.41032222 2.4322636 7.6015625 5.5 C8.97018483 8.23724467 8.75149854 10.44283588 8.77856445 13.50683594 C8.79781731 15.39955231 8.79781731 15.39955231 8.81745911 17.33050537 C8.82562761 18.71512459 8.83307113 20.09974825 8.83984375 21.484375 C8.84391928 22.18113594 8.8479948 22.87789688 8.85219383 23.59577179 C8.87305773 27.28552453 8.88735654 30.97524008 8.89672852 34.66503906 C8.9077781 38.46933911 8.94215933 42.27305182 8.98190022 46.07714462 C9.00809862 49.00776222 9.01642328 51.93824076 9.02000999 54.86896515 C9.02486975 56.27075404 9.03646648 57.67253697 9.05504799 59.07421112 C9.07949719 61.04119179 9.07604896 63.00845851 9.0715332 64.97558594 C9.07739944 66.09318298 9.08326569 67.21078003 9.08930969 68.36224365 C8.47305663 72.32669897 7.17282202 74.43985972 4.6015625 77.5 C0.9884881 79.31681338 -1.96015156 79.75212675 -5.97729492 79.76069641 C-7.08761078 79.76778122 -8.19792664 79.77486603 -9.34188843 79.78216553 C-11.15458725 79.7784494 -11.15458725 79.7784494 -13.00390625 79.7746582 C-14.28407623 79.77976913 -15.56424622 79.78488007 -16.88320923 79.79014587 C-20.38729849 79.80351481 -23.89127976 79.80411702 -27.39538956 79.80158257 C-30.32289463 79.80051166 -33.25037797 79.80539918 -36.17787838 79.810188 C-43.0844225 79.82127539 -49.99091223 79.82172459 -56.89746094 79.81567383 C-64.01902558 79.80963063 -71.14039282 79.82195549 -78.26192379 79.8432439 C-84.38096087 79.86086196 -90.49993511 79.86686103 -96.61899662 79.86360615 C-100.27163628 79.86179384 -103.92413505 79.8644244 -107.57675171 79.87832069 C-111.64895445 79.89323442 -115.72075529 79.8839272 -119.79296875 79.87231445 C-121.00143463 79.87995819 -122.20990051 79.88760193 -123.45498657 79.89547729 C-124.56530243 79.88846298 -125.67561829 79.88144867 -126.81958008 79.8742218 C-127.78189041 79.87438954 -128.74420074 79.87455729 -129.735672 79.87473011 C-134.32454765 79.22893915 -136.81605195 77.20830675 -139.7109375 73.6875 C-141.59987826 70.11950078 -142.05911536 68.46406718 -141.3984375 64.5 C-139.25679163 60.52265768 -137.61638453 58.1357482 -133.3984375 56.5 C-131.03216171 56.25390434 -131.03216171 56.25390434 -128.36175537 56.25949097 C-126.83895966 56.25536697 -126.83895966 56.25536697 -125.28540039 56.25115967 C-124.17769287 56.25835022 -123.06998535 56.26554077 -121.92871094 56.27294922 C-120.75769836 56.27265717 -119.58668579 56.27236511 -118.38018799 56.27206421 C-114.50598769 56.27345858 -110.63197924 56.28902513 -106.7578125 56.3046875 C-104.07310086 56.30952758 -101.38838943 56.31136277 -98.70367432 56.31326294 C-92.35723308 56.31947734 -86.01086081 56.33588761 -79.66444993 56.35596192 C-72.43838587 56.37832216 -65.21231851 56.38931466 -57.98622847 56.39935279 C-43.12359418 56.42025388 -28.2610204 56.45542908 -13.3984375 56.5 C-13.40954056 55.87217117 -13.42064362 55.24434235 -13.43208313 54.5974884 C-13.54274231 48.06017286 -13.61813222 41.52312354 -13.6730957 34.98510742 C-13.69823246 32.54554436 -13.73234696 30.10605655 -13.77563477 27.66674805 C-13.83631979 24.15915354 -13.8646565 20.6525551 -13.88671875 17.14453125 C-13.91252518 16.05477493 -13.9383316 14.96501862 -13.96492004 13.84223938 C-13.96772239 6.26840801 -13.96772239 6.26840801 -11.0378418 2.3137207 C-7.20707457 -0.31866943 -4.52079378 -0.19496685 0 0 Z " fill="#010101" transform="translate(746.3984375,574.5)"/>
<path d="M0 0 C-1.32 0.33 -2.64 0.66 -4 1 C-4 1.66 -4 2.32 -4 3 C-5.98 3.33 -7.96 3.66 -10 4 C-9.67 3.01 -9.34 2.02 -9 1 C-2.63157895 -1.31578947 -2.63157895 -1.31578947 0 0 Z " fill="#F1F1F1" transform="translate(654,259)"/>
</svg>
